<svg width="24" height="24" viewBox="0 0 24 24" fill="none" xmlns="http://www.w3.org/2000/svg">
<g id="folder-open-fill">
<path id="Vector" d="M5.99805 2.99023C4.38705 2.99023 3.01205 4.27723 2.99805 5.99023V16.9902C2.99805 18.1042 3.45105 19.1082 4.18605 19.8342C4.54405 20.1872 4.96505 20.4792 5.43605 20.6782C5.91905 20.8812 6.45405 20.9902 6.99805 20.9902H8.99805H15.998C17.052 20.9902 18.0381 20.5852 18.7791 19.8652C19.1771 19.4792 19.6331 18.3432 20.4361 15.9902C20.5001 15.8002 21.947 11.3372 21.967 11.2712C22.165 10.6282 21.671 9.99023 20.998 9.99023C20.873 9.99023 20.212 9.99023 19.998 9.99023V8.99023C19.998 7.33323 18.655 5.99023 16.998 5.99023H14.998C14.153 5.99023 13.925 5.80324 13.342 4.92824C12.425 3.55324 11.653 2.99023 9.99805 2.99023C9.12305 2.99023 6.87305 2.99023 5.99805 2.99023ZM5.99805 4.99023C6.87305 4.99023 9.12305 4.99023 9.99805 4.99023C10.843 4.99023 11.0711 5.17723 11.6541 6.05223C12.5711 7.42723 13.343 7.99023 14.998 7.99023H16.998C17.55 7.99023 17.998 8.43823 17.998 8.99023V9.99023C14.529 9.99023 9.24805 9.99023 7.99805 9.99023C7.58405 9.99023 7.20904 10.2592 7.06004 10.6462C7.06004 10.6462 5.90205 13.6712 4.99805 16.0212V5.99023C5.00305 5.41323 5.45805 4.99023 5.99805 4.99023Z" fill="#6C7275"/>
</g>
</svg>
