<svg width="24" height="24" viewBox="0 0 24 24" fill="none" xmlns="http://www.w3.org/2000/svg">
<g id="folder2-fill">
<path id="Vector" d="M5.99804 2.99023C4.24404 2.99123 3.00805 4.21723 2.99805 5.99023V7.99023C2.99905 8.03023 2.99805 16.9902 2.99805 16.9902C2.99805 19.1992 4.78904 20.9902 6.99804 20.9902H16.998C19.207 20.9902 20.998 19.1992 20.998 16.9902V10.9902C20.997 10.9052 20.998 9.14824 20.998 9.02124C21.005 7.28024 19.72 5.99723 17.998 5.99023C17.726 5.98923 17.051 5.98923 17.061 5.99023C16.138 5.98723 15.925 5.80324 15.342 4.92824C14.425 3.55324 13.653 2.99023 11.998 2.99023H5.99804ZM5.99804 4.99023H11.998C12.843 4.99023 13.071 5.17723 13.654 6.05223C14.571 7.42723 15.343 7.99023 16.998 7.99023C16.972 7.99123 17.722 7.98923 17.998 7.99023C18.622 7.99323 19.001 8.39124 18.998 9.02124C18.998 9.08524 18.997 9.52623 18.998 9.99023C18.358 9.99023 18.198 9.99023 14.998 9.99023C14.153 9.99023 13.925 9.80324 13.342 8.92824C12.425 7.55324 11.653 6.99023 9.99804 6.99023C9.11304 6.99023 6.43404 6.99023 4.99804 6.99023V5.99023C5.00204 5.32623 5.34004 4.99023 5.99804 4.99023Z" fill="#6C7275"/>
</g>
</svg>
