<svg width="24" height="24" viewBox="0 0 24 24" fill="none" xmlns="http://www.w3.org/2000/svg">
<path d="M11.719 2.00396C9.11583 2.0772 6.6439 3.16304 4.82889 5.03057C3.01388 6.8981 1.99898 9.4 2 12.0042C2.00119 14.6557 3.05531 17.1981 4.93059 19.0726C6.80588 20.947 9.34881 22 12.0003 22C14.6517 22 17.1947 20.947 19.07 19.0726C20.9452 17.1981 21.9994 14.6557 22.0005 12.0042C22.0011 10.667 21.7334 9.34317 21.2133 8.11118C20.6933 6.87919 19.9314 5.76401 18.9728 4.83162C18.0142 3.89924 16.8783 3.16861 15.6324 2.68291C14.3864 2.19722 13.0557 1.96635 11.719 2.00396ZM12.0003 7.00406C13.3803 7.00406 14.6246 7.51032 15.5316 8.41035L17.0004 7.00406V11.0042H16.9067H15.3129H13.0004L14.4379 9.50416C13.8209 8.90414 12.9696 8.5041 12.0316 8.5041C10.4825 8.5041 9.19525 9.60412 8.75024 11.0042H7.09394C7.55995 8.70414 9.58421 7.00406 12.0003 7.00406ZM7.00014 13.0043H7.09384H8.68763H11.0002L9.56266 14.4105C10.1797 15.0106 11.0309 15.4106 11.969 15.4106C13.518 15.4106 14.8053 14.4043 15.2503 13.0043H16.9066C16.4406 15.2043 14.4163 17.0043 12.0002 17.0043C10.6202 17.0043 9.3759 16.4043 8.46888 15.5043L7.00009 17.0043L7.00014 13.0043Z" fill="#3E90F0"/>
</svg>
