<svg width="24" height="25" viewBox="0 0 24 25" fill="none" xmlns="http://www.w3.org/2000/svg">
<path d="M14.0098 4.64453C14.0098 3.53953 13.1144 2.64453 12.0098 2.64453C10.9052 2.64453 10.0098 3.53953 10.0098 4.64453C10.0098 5.74952 10.9052 6.64452 12.0098 6.64452C13.1144 6.64452 14.0098 5.74952 14.0098 4.64453ZM14.0098 12.6445C14.0098 11.5395 13.1144 10.6445 12.0098 10.6445C10.9052 10.6445 10.0098 11.5395 10.0098 12.6445C10.0098 13.7495 10.9052 14.6445 12.0098 14.6445C13.1144 14.6445 14.0098 13.7495 14.0098 12.6445ZM14.0098 20.6445C14.0098 19.5395 13.1144 18.6445 12.0098 18.6445C10.9052 18.6445 10.0098 19.5395 10.0098 20.6445C10.0098 21.7495 10.9052 22.6445 12.0098 22.6445C13.1144 22.6445 14.0098 21.7495 14.0098 20.6445Z" fill="#6F767E"/>
</svg>
