<svg viewBox="0 0 32 32" fill="none" xmlns="http://www.w3.org/2000/svg">
<g clip-path="url(#clip0_1808_6629)">
<path d="M16 14.2563C15.0125 14.2563 14.2563 15.0688 14.2563 16C14.2563 16.9312 15.0688 17.7437 16 17.7437C16.9312 17.7437 17.7437 16.9312 17.7437 16C17.7437 15.0688 16.9875 14.2563 16 14.2563ZM16 0C7.2125 0 0 7.2125 0 16C0 24.7875 7.2125 32 16 32C24.7875 32 32 24.7875 32 16C32 7.2125 24.7875 0 16 0ZM20.4774 17.5343C19.8789 18.8351 18.8351 19.8789 17.5343 20.4774L8.86286 24.4669C8.0186 24.8553 7.14732 23.9826 7.53712 23.139L11.5267 14.5045C12.1228 13.2144 13.1575 12.1777 14.4464 11.5792L23.134 7.54512C23.9777 7.15332 24.8524 8.02495 24.4636 8.87006L20.4774 17.5343Z" fill="currentcolor"/>
</g>
<defs>
<clipPath id="clip0_1808_6629">
<rect width="32" height="32" fill="white"/>
</clipPath>
</defs>
</svg>
