<svg width="18" height="18" viewBox="0 0 18 18" fill="transparent">
<path d="M6 2.25H5.25C4.85218 2.25 4.47064 2.40804 4.18934 2.68934C3.90804 2.97064 3.75 3.35218 3.75 3.75V7.5C3.75 7.89782 3.59196 8.27936 3.31066 8.56066C3.02936 8.84196 2.64782 9 2.25 9C2.64782 9 3.02936 9.15804 3.31066 9.43934C3.59196 9.72064 3.75 10.1022 3.75 10.5V14.25C3.75 15.075 4.425 15.75 5.25 15.75H6" stroke="currentcolor" stroke-width="1.5" stroke-linecap="round" stroke-linejoin="round"/>
<path d="M12 15.75H12.75C13.1478 15.75 13.5294 15.592 13.8107 15.3107C14.092 15.0294 14.25 14.6478 14.25 14.25V10.5C14.25 9.675 14.925 9 15.75 9C15.3522 9 14.9706 8.84196 14.6893 8.56066C14.408 8.27936 14.25 7.89782 14.25 7.5V3.75C14.25 3.35218 14.092 2.97064 13.8107 2.68934C13.5294 2.40804 13.1478 2.25 12.75 2.25H12" stroke="currentcolor" stroke-width="1.5" stroke-linecap="round" stroke-linejoin="round"/>
</svg>
