<svg viewBox="0 0 13 12" fill="none" xmlns="http://www.w3.org/2000/svg">
<path d="M12.6604 5.9939C12.6604 5.6259 12.3618 5.32723 11.9938 5.32723H5.99377V3.32723L3.32711 5.9939L5.99377 8.66056V6.66056H11.9938C12.3618 6.66056 12.6604 6.3619 12.6604 5.9939ZM10.6604 2.66056C10.6604 1.1879 9.46644 -0.00610352 7.99377 -0.00610352H2.66044C1.18777 -0.00610352 -0.00622559 1.1879 -0.00622559 2.66056V9.32723C-0.00622559 10.7999 1.18777 11.9939 2.66044 11.9939H7.99377C9.46644 11.9939 10.6604 10.7999 10.6604 9.32723C10.6604 8.95923 10.3618 8.66056 9.99377 8.66056C9.62577 8.66056 9.32711 8.95923 9.32711 9.32723C9.32711 10.0639 8.73044 10.6606 7.99377 10.6606H2.66044C1.92377 10.6606 1.32711 10.0639 1.32711 9.32723V2.66056C1.32711 1.9239 1.92377 1.32723 2.66044 1.32723H7.99377C8.73044 1.32723 9.32711 1.9239 9.32711 2.66056C9.32711 3.02856 9.62577 3.32723 9.99377 3.32723C10.3618 3.32723 10.6604 3.02856 10.6604 2.66056Z" fill="currentcolor"/>
</svg>
