<svg width="30" height="37" viewBox="0 0 30 37" fill="none" xmlns="http://www.w3.org/2000/svg">
<path d="M1 6.25C1 3.3505 3.35051 1 6.25 1H22L29 8V30.75C29 33.6495 26.6495 36 23.75 36H6.25C3.35051 36 1 33.6495 1 30.75V6.25Z" fill="#F3F5F7" stroke="#FF6A55" stroke-width="1.3125"/>
<path d="M21.125 1L29 8.875H24.625C22.692 8.875 21.125 7.308 21.125 5.375V1Z" fill="#FF6A55"/>
<path d="M13.3212 18.3829C13.5476 18.1002 13.9603 18.0542 14.2432 18.2803C14.5262 18.5067 14.5722 18.9202 14.3457 19.2032L13.5066 20.2508L14.3457 21.3001C14.572 21.5831 14.5262 21.9958 14.2432 22.2221C13.9602 22.4485 13.5476 22.4025 13.3212 22.1196L12.154 20.661C11.9626 20.4214 11.9625 20.081 12.154 19.8415L13.3212 18.3829Z" fill="#FF6A55"/>
<path d="M15.7565 18.2805C16.0395 18.0541 16.4529 18.1001 16.6793 18.3831L17.8457 19.8417C18.0374 20.0813 18.0373 20.4215 17.8457 20.6611L16.6793 22.1198C16.4529 22.4028 16.0395 22.4487 15.7565 22.2223C15.4737 21.996 15.4279 21.5833 15.6539 21.3003L16.4931 20.251L15.6539 19.2034C15.4275 18.9204 15.4735 18.5069 15.7565 18.2805Z" fill="#FF6A55"/>
<path d="M15.5104 15.0016V12.668C15.5104 12.3055 15.8042 12.0117 16.1666 12.0117C16.5291 12.0117 16.8229 12.3055 16.8229 12.668V15.0016C16.823 15.1369 16.8768 15.2665 16.9724 15.3622C17.0681 15.4578 17.1977 15.5116 17.333 15.5117H19.6666C20.0291 15.5117 20.3229 15.8055 20.3229 16.168C20.3229 16.5304 20.0291 16.8242 19.6666 16.8242H17.333C16.8496 16.8241 16.3862 16.632 16.0444 16.2902C15.7026 15.9484 15.5105 15.485 15.5104 15.0016Z" fill="#FF6A55"/>
<path d="M9.677 23.168V13.8344C9.6771 13.351 9.8693 12.8876 10.2111 12.5458C10.5529 12.204 11.0163 12.0118 11.4996 12.0117H16.7496C16.9236 12.0117 17.0906 12.081 17.2136 12.204L20.1309 15.1204C20.2539 15.2434 20.323 15.4104 20.3231 15.5844V23.168C20.3231 23.6513 20.1307 24.1147 19.7891 24.4565C19.4472 24.7984 18.9831 24.9906 18.4996 24.9906H11.4996C11.0163 24.9905 10.5529 24.7983 10.2111 24.4565C9.8693 24.1147 9.677 23.6514 9.677 23.168ZM10.9895 23.168C10.9895 23.3033 11.0434 23.4329 11.139 23.5286C11.2347 23.6242 11.3644 23.678 11.4996 23.6781H18.4996C18.635 23.6781 18.7654 23.6243 18.8611 23.5286C18.9566 23.4329 19.0106 23.3032 19.0106 23.168V15.8561L16.4779 13.3242H11.4996C11.3644 13.3243 11.2347 13.3781 11.139 13.4738C11.0434 13.5694 10.9896 13.6991 10.9895 13.8344V23.168Z" fill="#FF6A55"/>
</svg>
