<svg width="32" height="32" viewBox="0 0 32 32" fill="none" xmlns="http://www.w3.org/2000/svg">
<mask id="mask0_4381_5452" maskUnits="userSpaceOnUse" x="1" y="0" width="30" height="32">
<path d="M31 0H1V32H31V0Z" fill="white"/>
</mask>
<g mask="url(#mask0_4381_5452)">
<path d="M19.5149 2.99247C19.2102 2.65617 18.8406 2.3869 18.4289 2.20135C18.0173 2.01581 17.5724 1.91796 17.1219 1.91388H7.95228C7.31271 1.93183 6.70624 2.20591 6.26573 2.67607C5.82522 3.14624 5.58659 3.77415 5.60212 4.42224V29.4916C5.58659 30.1397 5.82522 30.7676 6.26573 31.2378C6.70624 31.708 7.31271 31.982 7.95228 32H24.8201C25.4597 31.982 26.0662 31.708 26.5067 31.2378C26.9472 30.7676 27.1858 30.1397 27.1703 29.4916V12.837C27.1765 11.8989 26.8315 10.9932 26.2048 10.3027L19.5149 2.99247ZM18.9455 4.5811L24.1302 10.245H20.265C20.0916 10.245 19.92 10.2104 19.7598 10.1431C19.5996 10.0759 19.454 9.97738 19.3314 9.85315C19.2088 9.72893 19.1116 9.58145 19.0452 9.41914C18.9789 9.25683 18.9447 9.08287 18.9447 8.90719L18.9455 4.5811ZM25.6857 29.4916C25.7007 29.7406 25.6183 29.9856 25.4562 30.1734C25.2942 30.3612 25.0657 30.4767 24.8201 30.495H7.95228C7.70689 30.4765 7.47855 30.3609 7.31669 30.1731C7.15483 29.9853 7.07248 29.7405 7.08748 29.4916V4.42224C7.07249 4.17325 7.15495 3.9283 7.31698 3.74049C7.47902 3.55268 7.70757 3.43713 7.95311 3.4189H17.1186C17.2337 3.41924 17.3484 3.43156 17.461 3.45569V8.91137C17.461 9.66533 17.7566 10.3884 18.2828 10.9215C18.8089 11.4547 19.5226 11.7542 20.2667 11.7542H25.014C25.1371 11.7532 25.258 11.721 25.3656 11.6605C25.5768 12.0165 25.6884 12.4241 25.6882 12.8395L25.6857 29.4916Z" fill="#343839"/>
<path d="M18.9455 4.5811L24.1302 10.245H20.265C20.0916 10.245 19.9199 10.2104 19.7598 10.1432C19.5996 10.0759 19.454 9.97738 19.3314 9.85315C19.2088 9.72893 19.1116 9.58145 19.0452 9.41914C18.9789 9.25683 18.9447 9.08287 18.9447 8.90719L18.9455 4.5811Z" fill="#343839"/>
</g>
<path d="M21 19.7L16 26L11 19.7L14.3333 19.7L14.3333 14.1C14.3333 12.9408 15.0795 12 16 12C16.9205 12 17.6667 12.9408 17.6667 14.1L17.6667 19.7L21 19.7Z" fill="#343839"/>
</svg>
