<svg width="13" height="13" viewBox="0 0 13 13" fill="currentcolor">
<path d="M10.0763 0.308773C9.86968 0.279439 9.66236 0.34811 9.51436 0.49611C9.36169 0.648776 3.5177 6.49277 3.5177 6.49277C3.39303 6.61743 3.33036 6.79478 3.33036 6.97144V8.9701C3.33036 9.3381 3.62903 9.63676 3.99703 9.63676C4.24636 9.63676 5.74568 9.63676 5.99568 9.63676C6.17235 9.63676 6.34969 9.57409 6.47436 9.44943C6.47436 9.44943 12.3197 3.6041 12.471 3.45277C12.6204 3.30344 12.689 3.0781 12.6584 2.86944C12.5557 2.17411 12.2617 1.65011 11.805 1.18345C11.3464 0.71478 10.7863 0.408773 10.0763 0.308773ZM2.66435 0.974788C1.19235 0.974788 -0.000976562 2.16811 -0.000976562 3.64011V10.3028C-0.000976562 11.7748 0.52569 12.9681 1.99769 12.9681H9.32702C10.799 12.9681 11.9923 11.7748 11.9923 10.3028V5.80543L7.41168 10.3861C7.03034 10.7674 6.51968 10.9694 5.99568 10.9694C5.65235 10.9694 4.34036 10.9694 3.99703 10.9694C2.89303 10.9694 1.99769 10.0741 1.99769 8.9701V6.97144C1.99769 6.44744 2.17903 5.93676 2.56036 5.55543L7.14103 0.974788H2.66435ZM10.199 1.69879C10.4537 1.77879 10.657 1.90546 10.847 2.09946C11.043 2.29946 11.179 2.50347 11.2603 2.75547C10.971 3.04213 10.651 3.35345 10.315 3.68678L9.25903 2.6301C9.59769 2.2961 9.90701 1.98679 10.199 1.69879Z"/>
</svg>
