<svg viewBox="0 0 14 14" fill="none">
<path d="M2.95373 6.63309C2.95374 6.55555 2.96907 6.47878 2.99884 6.40718C3.02861 6.33558 3.07222 6.27056 3.12719 6.21587C3.18215 6.16117 3.24737 6.11787 3.31912 6.08845C3.39086 6.05903 3.46771 6.04407 3.54525 6.04444L4.52593 6.04764C4.68229 6.04764 4.83225 6.10975 4.94282 6.22032C5.05338 6.33089 5.1155 6.48085 5.1155 6.63721V10.3457C5.22595 10.3129 5.36731 10.278 5.52286 10.2414C5.63062 10.216 5.72667 10.155 5.79541 10.0682C5.86416 9.98147 5.90158 9.87401 5.9016 9.7633V5.16356C5.9016 5.00719 5.96371 4.85721 6.07428 4.74663C6.18484 4.63605 6.3348 4.5739 6.49118 4.57387H7.47483C7.63121 4.5739 7.78117 4.63605 7.89173 4.74663C8.00229 4.85721 8.0644 5.00719 8.0644 5.16356V9.43286C8.0644 9.43286 8.31049 9.33328 8.55005 9.2321C8.63907 9.19445 8.71504 9.13142 8.76847 9.05088C8.8219 8.97033 8.85043 8.87584 8.8505 8.77919V3.68957C8.8505 3.53322 8.91261 3.38328 9.02315 3.27272C9.13369 3.16215 9.28362 3.10002 9.43997 3.09999H10.4226C10.5789 3.10015 10.7287 3.16233 10.8391 3.27288C10.9496 3.38343 11.0116 3.5333 11.0116 3.68957V7.88069C11.8635 7.2633 12.7269 6.52069 13.412 5.62781C13.5114 5.4982 13.5772 5.346 13.6035 5.18479C13.6298 5.02358 13.6157 4.85837 13.5626 4.7039C13.2455 3.79145 12.7413 2.95526 12.0825 2.24883C11.4236 1.5424 10.6245 0.981296 9.73636 0.601415C8.84819 0.221534 7.8905 0.0312452 6.92458 0.0427266C5.95865 0.054208 5.00576 0.267206 4.12687 0.668091C3.24799 1.06898 2.46247 1.64892 1.82058 2.37081C1.17869 3.0927 0.694563 3.94064 0.399186 4.86037C0.103809 5.78009 0.00368315 6.75136 0.105216 7.712C0.206748 8.67265 0.507703 9.60152 0.988822 10.4392C1.07264 10.5837 1.19596 10.7013 1.3443 10.7781C1.49263 10.8549 1.65981 10.8879 1.8262 10.873C2.01208 10.8566 2.24351 10.8335 2.51867 10.8012C2.63843 10.7876 2.74899 10.7304 2.8293 10.6405C2.90961 10.5506 2.95406 10.4344 2.95419 10.3138V6.63309" fill="currentcolor"/>
<path d="M2.93274 12.5804C3.9685 13.3339 5.19251 13.7862 6.46936 13.8872C7.74621 13.9882 9.02612 13.7341 10.1675 13.1528C11.3088 12.5716 12.2672 11.6859 12.9364 10.5938C13.6057 9.50176 13.9598 8.24582 13.9595 6.96498C13.9595 6.80474 13.9521 6.64701 13.9415 6.48975C11.4047 10.2732 6.72085 12.0419 2.93274 12.5804Z" fill="currentcolor"/>
</svg>
