<svg viewBox="0 0 32 32" fill="none" xmlns="http://www.w3.org/2000/svg">
<mask id="mask0_4379_5249" maskUnits="userSpaceOnUse" x="2" y="0" width="30" height="32">
<path d="M32 0H2V32H32V0Z" fill="white"/>
</mask>
<g mask="url(#mask0_4379_5249)">
<path d="M20.5149 2.99247C20.2102 2.65617 19.8406 2.3869 19.4289 2.20135C19.0173 2.01581 18.5724 1.91796 18.1219 1.91388H8.95228C8.31271 1.93183 7.70624 2.20591 7.26573 2.67607C6.82522 3.14624 6.58659 3.77415 6.60212 4.42224V29.4916C6.58659 30.1397 6.82522 30.7676 7.26573 31.2378C7.70624 31.708 8.31271 31.982 8.95228 32H25.8201C26.4597 31.982 27.0662 31.708 27.5067 31.2378C27.9472 30.7676 28.1858 30.1397 28.1703 29.4916V12.837C28.1765 11.8989 27.8315 10.9932 27.2048 10.3027L20.5149 2.99247ZM19.9455 4.5811L25.1302 10.245H21.265C21.0916 10.245 20.92 10.2104 20.7598 10.1431C20.5996 10.0759 20.454 9.97738 20.3314 9.85315C20.2088 9.72893 20.1116 9.58145 20.0452 9.41914C19.9789 9.25683 19.9447 9.08287 19.9447 8.90719L19.9455 4.5811ZM26.6857 29.4916C26.7007 29.7406 26.6183 29.9856 26.4562 30.1734C26.2942 30.3612 26.0657 30.4767 25.8201 30.495H8.95228C8.70689 30.4765 8.47855 30.3609 8.31669 30.1731C8.15483 29.9853 8.07248 29.7405 8.08748 29.4916V4.42224C8.07249 4.17325 8.15495 3.9283 8.31698 3.74049C8.47902 3.55268 8.70757 3.43713 8.95311 3.4189H18.1186C18.2337 3.41924 18.3484 3.43156 18.461 3.45569V8.91137C18.461 9.66533 18.7566 10.3884 19.2828 10.9215C19.8089 11.4547 20.5226 11.7542 21.2667 11.7542H26.014C26.1371 11.7532 26.258 11.721 26.3656 11.6605C26.5768 12.0165 26.6884 12.4241 26.6882 12.8395L26.6857 29.4916Z" fill="#343839"/>
<path d="M19.9455 4.5811L25.1302 10.245H21.265C21.0916 10.245 20.9199 10.2104 20.7598 10.1432C20.5996 10.0759 20.454 9.97738 20.3314 9.85315C20.2088 9.72893 20.1116 9.58145 20.0452 9.41914C19.9789 9.25683 19.9447 9.08287 19.9447 8.90719L19.9455 4.5811Z" fill="#343839"/>
<path d="M23.973 28.0326H3.13249C2.83206 28.0324 2.54401 27.9079 2.33165 27.6866C2.11929 27.4653 2 27.1653 2 26.8525V19.1801C2 18.8673 2.11929 18.5672 2.33165 18.3459C2.54401 18.1247 2.83206 18.0002 3.13249 18H23.973C24.2734 18.0002 24.5615 18.1247 24.7738 18.3459C24.9862 18.5672 25.1055 18.8673 25.1055 19.1801V26.8533C25.1055 27.1662 24.9862 27.4662 24.7738 27.6875C24.5615 27.9088 24.2734 28.0324 23.973 28.0326Z" fill="#34A853"/>
<path d="M17.4466 20.0798L18.8568 24.5128H18.911L20.3241 20.0798H21.6916L19.6802 25.9145H18.0904L16.0762 20.0798H17.4466Z" fill="#FCFCFC"/>
<path d="M14.3006 21.7578C14.2778 21.528 14.18 21.3495 14.0071 21.2222C13.8343 21.095 13.5997 21.0313 13.3034 21.0313C13.1021 21.0313 12.9321 21.0598 12.7934 21.1168C12.6548 21.1719 12.5484 21.2488 12.4744 21.3476C12.4022 21.4463 12.3661 21.5584 12.3661 21.6838C12.3623 21.7882 12.3841 21.8794 12.4316 21.9573C12.481 22.0351 12.5484 22.1026 12.6339 22.1595C12.7194 22.2146 12.8181 22.2631 12.9302 22.3048C13.0423 22.3447 13.1619 22.3789 13.2892 22.4074L13.8134 22.5328C14.0679 22.5897 14.3015 22.6657 14.5142 22.7607C14.727 22.8556 14.9112 22.9725 15.067 23.1111C15.2227 23.2498 15.3433 23.4131 15.4288 23.6011C15.5161 23.7892 15.5608 24.0047 15.5627 24.2479C15.5608 24.6049 15.4696 24.9145 15.2892 25.1766C15.1106 25.4368 14.8523 25.6391 14.5142 25.7835C14.1781 25.9259 13.7726 25.9971 13.2977 25.9971C12.8267 25.9971 12.4164 25.925 12.067 25.7806C11.7194 25.6363 11.4478 25.4226 11.2521 25.1396C11.0584 24.8547 10.9568 24.5024 10.9473 24.0826H12.141C12.1543 24.2782 12.2104 24.4416 12.3091 24.5726C12.4098 24.7018 12.5437 24.7996 12.7108 24.8661C12.8799 24.9307 13.0708 24.963 13.2835 24.963C13.4924 24.963 13.6738 24.9326 13.8276 24.8718C13.9834 24.811 14.104 24.7265 14.1895 24.6182C14.2749 24.51 14.3177 24.3856 14.3177 24.245C14.3177 24.114 14.2787 24.0038 14.2009 23.9145C14.1249 23.8253 14.0128 23.7493 13.8647 23.6866C13.7184 23.6239 13.5389 23.5669 13.3262 23.5157L12.6909 23.3561C12.199 23.2365 11.8105 23.0494 11.5256 22.7949C11.2407 22.5404 11.0992 22.1975 11.1011 21.7664C11.0992 21.4131 11.1933 21.1045 11.3832 20.8405C11.575 20.5764 11.8381 20.3704 12.1724 20.2222C12.5066 20.0741 12.8865 20 13.312 20C13.745 20 14.123 20.0741 14.4459 20.2222C14.7707 20.3704 15.0233 20.5764 15.2037 20.8405C15.3841 21.1045 15.4772 21.4103 15.4829 21.7578H14.3006Z" fill="#FCFCFC"/>
<path d="M10.2507 22.1225H9.00285C8.98005 21.9611 8.93352 21.8177 8.86324 21.6923C8.79297 21.5651 8.70275 21.4568 8.59259 21.3675C8.48243 21.2783 8.35517 21.2099 8.21082 21.1624C8.06837 21.1149 7.91358 21.0912 7.74644 21.0912C7.44444 21.0912 7.18138 21.1662 6.95726 21.3162C6.73314 21.4644 6.55935 21.6809 6.4359 21.9658C6.31244 22.2488 6.25071 22.5926 6.25071 22.9971C6.25071 23.4131 6.31244 23.7626 6.4359 24.0456C6.56125 24.3286 6.73599 24.5423 6.96011 24.6866C7.18423 24.831 7.44349 24.9031 7.73789 24.9031C7.90313 24.9031 8.05603 24.8813 8.19658 24.8376C8.33903 24.7939 8.46533 24.7303 8.5755 24.6467C8.68566 24.5612 8.77683 24.4577 8.849 24.3362C8.92307 24.2146 8.97436 24.076 9.00285 23.9202L10.2507 23.9259C10.2184 24.1937 10.1377 24.452 10.0085 24.7009C9.88129 24.9478 9.7094 25.169 9.49287 25.3647C9.27825 25.5584 9.02184 25.7122 8.72364 25.8262C8.42735 25.9383 8.09212 25.9943 7.71795 25.9943C7.19753 25.9943 6.73219 25.8765 6.32194 25.641C5.91358 25.4055 5.59069 25.0646 5.35328 24.6182C5.11776 24.1719 5 23.6315 5 22.9971C5 22.3609 5.11966 21.8196 5.35897 21.3732C5.59829 20.9269 5.92308 20.5869 6.33333 20.3533C6.74359 20.1178 7.20513 20 7.71795 20C8.05603 20 8.36942 20.0475 8.65812 20.1425C8.94871 20.2374 9.20607 20.3761 9.4302 20.5584C9.65432 20.7388 9.83665 20.9601 9.9772 21.2222C10.1197 21.4843 10.2108 21.7844 10.2507 22.1225Z" fill="#FCFCFC"/>
</g>
<path d="M30.8819 5.43478L27.9937 9.19732L25.1055 5.43478L27.031 5.43478L27.031 2.0903C27.031 1.39799 27.462 0.836119 27.9937 0.836119C28.5254 0.836119 28.9564 1.39799 28.9564 2.0903L28.9564 5.43478L30.8819 5.43478Z" fill="#343839"/>
</svg>
