<svg viewBox="0 0 16 16" fill="none" xmlns="http://www.w3.org/2000/svg">
<path fill-rule="evenodd" clip-rule="evenodd" d="M11.017 1.212C10.8087 1.00372 10.471 1.00372 10.2627 1.212C10.0545 1.42028 10.0545 1.75796 10.2627 1.96624L10.9593 2.66279L5.7873 6.54177L4.60589 5.36036C4.39761 5.15208 4.05992 5.15208 3.85164 5.36036C3.64336 5.56864 3.64336 5.90632 3.85164 6.1146L5.36014 7.6231L6.49157 8.75454C6.49156 8.75455 6.49154 8.75457 6.49153 8.75458L3.00313 12.243C2.79485 12.4513 2.79485 12.7889 3.00313 12.9972C3.21141 13.2055 3.5491 13.2055 3.75738 12.9972L7.24577 9.50883C7.24579 9.50882 7.24581 9.5088 7.24582 9.50878L8.37712 10.6401L9.88562 12.1486C10.0939 12.3569 10.4316 12.3569 10.6399 12.1486C10.8481 11.9403 10.8481 11.6026 10.6399 11.3943L9.45845 10.2129L13.3374 5.04094L14.034 5.73748C14.2423 5.94576 14.5799 5.94576 14.7882 5.73748C14.9965 5.5292 14.9965 5.19151 14.7882 4.98323L13.6569 3.85186L12.1484 2.34337L11.017 1.212ZM6.54921 7.30368L11.7212 3.42469L12.5755 4.27903L8.69654 9.45101L6.54921 7.30368Z" fill="currentcolor"/>
</svg>
