<svg width="12" height="13" viewBox="0 0 12 13" fill="currentcolor">
<path d="M2.66056 0.953125C1.18783 0.953125 -0.00610352 2.14713 -0.00610352 3.61979V10.2865C-0.00610352 11.7591 1.18783 12.9531 2.66056 12.9531H9.32723C10.8 12.9531 11.9939 11.7591 11.9939 10.2865V3.61979C11.9939 2.14713 10.8 0.953125 9.32723 0.953125H2.66056ZM5.95223 3.61979C7.0557 3.61979 7.9483 4.51579 7.95223 5.61979C7.9549 6.35913 7.60796 6.98246 7.03556 7.55713C6.91576 7.6778 6.8001 7.79378 6.66056 7.91178C6.59396 7.96778 6.40963 8.10313 6.38976 8.11979C6.10823 8.35713 5.68956 8.33913 5.45223 8.05713C5.2149 7.7758 5.25403 7.33645 5.53556 7.09912C5.56636 7.07312 5.72963 6.9378 5.78556 6.89046C5.8975 6.79646 6.00883 6.70913 6.09803 6.61979C6.44443 6.27179 6.62003 5.93846 6.6189 5.61979C6.61756 5.24913 6.3197 4.95312 5.95223 4.95312C5.64783 4.95312 5.3829 5.16379 5.30643 5.45312C5.21236 5.80912 4.8499 6.02645 4.4939 5.93245C4.1379 5.83845 3.9207 5.45512 4.0147 5.09912C4.2449 4.22779 5.03896 3.61979 5.95223 3.61979ZM5.95223 8.95312C6.32043 8.95312 6.6189 9.25179 6.6189 9.61979C6.6189 9.98779 6.32043 10.2865 5.95223 10.2865C5.58403 10.2865 5.28556 9.98779 5.28556 9.61979C5.28556 9.25179 5.58403 8.95312 5.95223 8.95312Z"/>
</svg>
