<svg width="83" height="22" viewBox="0 0 83 22" fill="none" xmlns="http://www.w3.org/2000/svg">
<path d="M62.6841 21.7601V10.6326H65.9736V12.7221H66.0405C66.3274 11.9823 66.7609 11.4191 67.341 11.0325C67.9212 10.6393 68.6192 10.4426 69.4352 10.4426C70.621 10.4426 71.5486 10.8125 72.2179 11.5524C72.8937 12.2922 73.2316 13.3187 73.2316 14.6317V21.7601H69.8369V15.3915C69.8369 14.745 69.6743 14.2418 69.3492 13.8819C69.0304 13.5153 68.581 13.332 68.0009 13.332C67.4271 13.332 66.9617 13.5319 66.6047 13.9319C66.2477 14.3318 66.0692 14.8483 66.0692 15.4815V21.7601H62.6841Z" fill="currentcolor"/>
<path d="M62.0713 10.6328L59.3173 21.7603H55.6644L53.9527 14.212H53.8858L52.1837 21.7603H48.5882L45.8246 10.6328H49.2384L50.625 18.5411H50.6919L52.3558 10.6328H55.5879L57.2709 18.5411H57.3379L58.7245 10.6328H62.0713Z" fill="currentcolor"/>
<path d="M44.2662 20.4703C43.3036 21.4901 41.9775 22 40.2882 22C38.5988 22 37.2728 21.4901 36.3102 20.4703C35.3475 19.4439 34.8662 18.0176 34.8662 16.1913C34.8662 14.3984 35.3539 12.9853 36.3293 11.9522C37.3047 10.9125 38.6243 10.3926 40.2882 10.3926C41.9584 10.3926 43.2781 10.9091 44.2471 11.9422C45.2224 12.9687 45.7101 14.385 45.7101 16.1913C45.7101 18.0242 45.2288 19.4506 44.2662 20.4703ZM38.8251 18.5608C39.1757 19.114 39.6634 19.3906 40.2882 19.3906C40.9129 19.3906 41.4006 19.114 41.7512 18.5608C42.1019 18.0009 42.2772 17.2111 42.2772 16.1913C42.2772 15.1982 42.0987 14.4184 41.7417 13.8518C41.3847 13.2853 40.9002 13.002 40.2882 13.002C39.6698 13.002 39.1821 13.2853 38.8251 13.8518C38.4745 14.4117 38.2992 15.1915 38.2992 16.1913C38.2992 17.2111 38.4745 18.0009 38.8251 18.5608Z" fill="currentcolor"/>
<path d="M23.3906 21.7601V10.6326H26.6801V12.7221H26.7471C27.034 11.9823 27.4675 11.4191 28.0476 11.0325C28.6277 10.6393 29.3258 10.4426 30.1418 10.4426C31.3275 10.4426 32.2551 10.8125 32.9245 11.5524C33.6002 12.2922 33.9381 13.3187 33.9381 14.6317V21.7601H30.5434V15.3915C30.5434 14.745 30.3808 14.2418 30.0557 13.8819C29.737 13.5153 29.2875 13.332 28.7074 13.332C28.1336 13.332 27.6683 13.5319 27.3113 13.9319C26.9543 14.3318 26.7758 14.8483 26.7758 15.4815V21.7601H23.3906Z" fill="currentcolor"/>
<path d="M17.2414 12.912C16.6995 12.912 16.2437 13.102 15.8739 13.4819C15.5042 13.8618 15.297 14.3484 15.2524 14.9416H19.2113C19.1794 14.3284 18.9818 13.8385 18.6184 13.4719C18.2614 13.0986 17.8024 12.912 17.2414 12.912ZM19.2878 18.2608H22.3478C22.182 19.4006 21.6433 20.3104 20.7317 20.9902C19.8264 21.6634 18.6853 22 17.3083 22C15.6253 22 14.3057 21.4901 13.3494 20.4703C12.3932 19.4506 11.915 18.0442 11.915 16.2513C11.915 14.4583 12.39 13.0353 13.3399 11.9822C14.2897 10.9225 15.5743 10.3926 17.1936 10.3926C18.7809 10.3926 20.0464 10.8991 20.9899 11.9122C21.9398 12.9187 22.4147 14.2684 22.4147 15.9613V16.9711H15.2141V17.1911C15.2141 17.8709 15.4117 18.4241 15.807 18.8507C16.2022 19.2706 16.7186 19.4806 17.3561 19.4806C17.8279 19.4806 18.2359 19.3739 18.5801 19.1606C18.9244 18.9407 19.1603 18.6408 19.2878 18.2608Z" fill="currentcolor"/>
<path d="M3.50945 10.1029V14.202H5.58452C6.2284 14.202 6.73202 14.0187 7.0954 13.6521C7.45878 13.2855 7.64047 12.789 7.64047 12.1624C7.64047 11.5426 7.4524 11.046 7.07628 10.6728C6.70015 10.2928 6.19971 10.1029 5.57496 10.1029H3.50945ZM3.50945 16.7114V21.7603H0V7.3335H5.92877C7.63728 7.3335 8.94735 7.75007 9.85897 8.58322C10.7706 9.41637 11.2264 10.5861 11.2264 12.0924C11.2264 12.9989 11.0192 13.8221 10.6049 14.5619C10.1905 15.2951 9.61354 15.8316 8.87403 16.1715L11.628 21.7603H7.68828L5.32633 16.7114H3.50945Z" fill="currentcolor"/>
<path d="M76.834 0.248901C76.0842 2.90384 74.0847 4.99678 71.5484 5.77851C71.2303 5.87734 71.2303 6.34494 71.5484 6.44376C74.0833 7.22549 76.0842 9.31844 76.834 11.9734C76.9277 12.3052 77.3807 12.3052 77.4758 11.9734C78.2257 9.31844 80.2251 7.22549 82.7614 6.44376C83.0795 6.34494 83.0795 5.87734 82.7614 5.77851C80.2266 4.99678 78.2257 2.90384 77.4758 0.248901C77.3821 -0.0829669 76.9291 -0.0829669 76.834 0.248901Z" fill="url(#paint0_linear_2120_7894)"/>
<defs>
<linearGradient id="paint0_linear_2120_7894" x1="77.1549" y1="-0.768932" x2="72.2552" y2="11.3783" gradientUnits="userSpaceOnUse">
<stop stop-color="#21FFB4"/>
<stop offset="1" stop-color="#0080FF"/>
</linearGradient>
</defs>
</svg>
