<svg width="10" height="7" viewBox="0 0 10 7" fill="currentcolor">
<path d="M0.539174 0.830403L0.539396 0.830693L4.81717 6.41675L0.539174 0.830403ZM0.539174 0.830403C0.492941 0.770121 0.486776 0.69618 0.524599 0.622069C0.562768 0.547277 0.632849 0.5 0.721373 0.5L9.27711 0.5C9.36895 0.5 9.44336 0.552912 9.47789 0.620069C9.51177 0.686686 9.50789 0.767089 9.45938 0.830307L9.45889 0.83095M0.539174 0.830403L9.45889 0.83095M9.45889 0.83095C9.05222 1.36269 7.09357 3.91999 5.94678 5.41729C5.588 5.88573 5.30868 6.25042 5.18122 6.41687M9.45889 0.83095L5.18122 6.41687M5.18122 6.41687C5.1428 6.46691 5.07824 6.5 4.99924 6.5M5.18122 6.41687L4.99924 6.5M4.99924 6.5C4.92023 6.5 4.85567 6.46691 4.81726 6.41687L4.99924 6.5Z" fill="currentcolor" stroke="currentcolor"/>
</svg>
