<svg xmlns="http://www.w3.org/2000/svg">
  <defs>
    <symbol id="plus" viewBox="0 0 18 19" fill="currentcolor">
      <path
        d="M8.99072 0.929749C8.43872 0.929749 7.99072 1.37775 7.99072 1.92975V8.92975H0.990723C0.438723 8.92975 -0.00927734 9.37775 -0.00927734 9.92975C-0.00927734 10.4817 0.438723 10.9297 0.990723 10.9297H7.99072V17.9297C7.99072 18.4817 8.43872 18.9297 8.99072 18.9297C9.54272 18.9297 9.99072 18.4817 9.99072 17.9297V10.9297H16.9907C17.5427 10.9297 17.9907 10.4817 17.9907 9.92975C17.9907 9.37775 17.5427 8.92975 16.9907 8.92975H9.99072V1.92975C9.99072 1.37775 9.54272 0.929749 8.99072 0.929749Z" />
    </symbol>
    <symbol id="plus-circle" viewBox="0 0 16 16" fill="currentcolor">
      <path
        d="M8.00846 1.30273C4.3266 1.30273 1.3418 4.2874 1.3418 7.9694C1.3418 11.6514 4.3266 14.6361 8.00846 14.6361C11.6903 14.6361 14.6751 11.6514 14.6751 7.9694C14.6751 4.2874 11.6903 1.30273 8.00846 1.30273ZM8.00846 4.63607C8.37667 4.63607 8.67513 4.93473 8.67513 5.30273V7.30273H10.6751C11.0433 7.30273 11.3418 7.6014 11.3418 7.9694C11.3418 8.3374 11.0433 8.63606 10.6751 8.63606H8.67513V10.6361C8.67513 11.0041 8.37667 11.3027 8.00846 11.3027C7.64026 11.3027 7.3418 11.0041 7.3418 10.6361V8.63606H5.3418C4.9736 8.63606 4.67513 8.3374 4.67513 7.9694C4.67513 7.6014 4.9736 7.30273 5.3418 7.30273H7.3418V5.30273C7.3418 4.93473 7.64026 4.63607 8.00846 4.63607Z" />
    </symbol>
    <symbol id="xmark" viewBox="0 0 24 24" fill="currentcolor">
      <path fill-rule="evenodd" clip-rule="evenodd"
        d="M16.9993 8.51506L15.4844 7L11.9994 10.4852L8.51497 7.00057L7 8.51562L10.4844 12.0003L7.00056 15.4843L8.51552 16.9994L11.9994 13.5153L15.4838 17L16.9988 15.4849L13.5144 12.0003L16.9993 8.51506Z" />
    </symbol>
    <symbol id="check" viewBox="0 0 24 24" fill="currentcolor">
      <path
        d="M10.1575 16.8849C10.5032 16.8849 10.8257 16.7467 11.0562 16.5162L18.3142 9.25817L16.517 7.46094L10.1575 13.8204L7.48473 11.1476L5.6875 12.9448L9.25893 16.5162C9.48934 16.7467 9.81192 16.8849 10.1575 16.8849Z" />
    </symbol>
    <symbol id="search" viewBox="0 0 24 24" fill="currentcolor">
      <path
        d="M10.0137 1.95312C5.59537 1.95312 2.01367 5.53513 2.01367 9.95314C2.01367 14.3712 5.59537 17.9532 10.0137 17.9532C11.8504 17.9532 13.5913 17.3222 14.9416 16.2822L19.2949 20.6722C19.6855 21.0622 20.3419 21.0622 20.7325 20.6722C21.123 20.2812 21.123 19.6252 20.7325 19.2342L16.349 14.8741C17.3898 13.5241 18.0137 11.7901 18.0137 9.95314C18.0137 5.53513 14.432 1.95312 10.0137 1.95312ZM10.0137 3.95313C13.3274 3.95313 16.0137 6.63914 16.0137 9.95314C16.0137 13.2672 13.3274 15.9532 10.0137 15.9532C6.69997 15.9532 4.01367 13.2672 4.01367 9.95314C4.01367 6.63914 6.69997 3.95313 10.0137 3.95313Z" />
    </symbol>
    <symbol id="folder-open" viewBox="0 0 24 24" fill="currentcolor">
      <path
        d="M5.99805 2.99023C4.38705 2.99023 3.01205 4.27723 2.99805 5.99023V16.9902C2.99805 18.1042 3.45105 19.1082 4.18605 19.8342C4.54405 20.1872 4.96505 20.4792 5.43605 20.6782C5.91905 20.8812 6.45405 20.9902 6.99805 20.9902H8.99805H15.998C17.052 20.9902 18.0381 20.5852 18.7791 19.8652C19.1771 19.4792 19.6331 18.3432 20.4361 15.9902C20.5001 15.8002 21.947 11.3372 21.967 11.2712C22.165 10.6282 21.671 9.99023 20.998 9.99023C20.873 9.99023 20.212 9.99023 19.998 9.99023V8.99023C19.998 7.33323 18.655 5.99023 16.998 5.99023H14.998C14.153 5.99023 13.925 5.80324 13.342 4.92824C12.425 3.55324 11.653 2.99023 9.99805 2.99023C9.12305 2.99023 6.87305 2.99023 5.99805 2.99023ZM5.99805 4.99023C6.87305 4.99023 9.12305 4.99023 9.99805 4.99023C10.843 4.99023 11.0711 5.17723 11.6541 6.05223C12.5711 7.42723 13.343 7.99023 14.998 7.99023H16.998C17.55 7.99023 17.998 8.43823 17.998 8.99023V9.99023C14.529 9.99023 9.24805 9.99023 7.99805 9.99023C7.58405 9.99023 7.20904 10.2592 7.06004 10.6462C7.06004 10.6462 5.90205 13.6712 4.99805 16.0212V5.99023C5.00305 5.41323 5.45805 4.99023 5.99805 4.99023Z" />
    </symbol>
    <symbol id="chevron-down" viewBox="0 0 24 24" fill="none" stroke="currentcolor">
      <path d="M6 9L12 15L18 9" stroke-width="2" stroke-linecap="round" stroke-linejoin="round" />
    </symbol>
    <symbol id="bar-chart" viewBox="0 0 16 16" fill="currentcolor">
      <path
        d="M12.0104 2.66602C11.2738 2.66602 10.6771 3.26268 10.6771 3.99935V11.9993C10.6771 12.736 11.2738 13.3327 12.0104 13.3327H13.3438C14.0804 13.3327 14.6771 12.736 14.6771 11.9993V3.99935C14.6771 3.26268 14.0804 2.66602 13.3438 2.66602H12.0104ZM7.34375 5.33268C6.60708 5.33268 6.01042 5.92935 6.01042 6.66602V11.9993C6.01042 12.736 6.60708 13.3327 7.34375 13.3327H8.67708C9.41375 13.3327 10.0104 12.736 10.0104 11.9993V6.66602C10.0104 5.92935 9.41375 5.33268 8.67708 5.33268H7.34375ZM2.67708 7.99935C1.94042 7.99935 1.34375 8.59602 1.34375 9.33268V11.9993C1.34375 12.736 1.94042 13.3327 2.67708 13.3327H4.01042C4.74708 13.3327 5.34375 12.736 5.34375 11.9993V9.33268C5.34375 8.59602 4.74708 7.99935 4.01042 7.99935H2.67708Z" />
    </symbol>
    <symbol id="trash" viewBox="0 0 16 16" fill="currentcolor">
      <path
        d="M7.99935 1.30273C7.26269 1.30273 6.66602 1.8994 6.66602 2.63606H3.33268C2.96468 2.63606 2.66602 2.93473 2.66602 3.30273C2.66602 3.67073 2.96468 3.96939 3.33268 3.96939H12.666C13.034 3.96939 13.3327 3.67073 13.3327 3.30273C13.3327 2.93473 13.034 2.63606 12.666 2.63606H9.33269C9.33269 1.8994 8.73602 1.30273 7.99935 1.30273ZM3.33268 5.30272V11.9694C3.33268 13.4294 4.53602 14.6154 5.99935 14.6154L10.02 14.636C11.4834 14.636 12.666 13.4327 12.666 11.9694V5.30272H3.33268ZM6.66602 7.30272C7.03402 7.30272 7.33269 7.60138 7.33269 7.96938V11.9694C7.33269 12.3374 7.03402 12.636 6.66602 12.636C6.29802 12.636 5.99935 12.3374 5.99935 11.9694V7.96938C5.99935 7.60138 6.29802 7.30272 6.66602 7.30272ZM9.33269 7.30272C9.70069 7.30272 9.99936 7.60138 9.99936 7.96938V11.9694C9.99936 12.3374 9.70069 12.636 9.33269 12.636C8.96469 12.636 8.66602 12.3374 8.66602 11.9694V7.96938C8.66602 7.60138 8.96469 7.30272 9.33269 7.30272Z" />
    </symbol>
    <symbol id="cloud-slash" viewBox="0 0 24 24" fill="currentcolor">
      <path
        d="M12.0137 3.99043C10.8277 4.00043 9.59167 4.33942 8.51367 4.95942C8.03467 5.23442 7.86367 5.85542 8.13867 6.33442C8.41367 6.81342 9.03467 6.95347 9.51367 6.67847C10.2927 6.23047 11.1717 5.99742 12.0137 5.99042C14.6947 5.96942 17.0347 8.27742 17.0137 10.9904C17.0137 11.0504 17.0137 11.8534 17.0137 12.0844C17.0137 12.5504 17.3097 12.9794 17.7637 13.0844C19.0797 13.3884 20.0137 14.3904 20.0137 15.4904C20.0137 15.8464 19.9357 16.2034 19.7637 16.5224C19.5017 17.0074 19.6837 17.6034 20.1697 17.8654C20.6557 18.1284 21.2517 17.9454 21.5137 17.4594C21.8417 16.8524 22.0137 16.1824 22.0137 15.4904C22.0137 13.6764 20.8217 12.1095 19.0097 11.3765C19.0117 11.1985 19.0137 11.0174 19.0137 10.9904C19.0437 7.15542 15.8047 3.96143 12.0137 3.99043ZM5.01367 5.99042C4.75767 5.99042 4.48968 6.07647 4.29468 6.27247C3.90468 6.66247 3.90468 7.31941 4.29468 7.70941L5.40268 8.80542C5.29468 9.03042 5.24667 9.28445 5.19067 9.54345C3.28667 10.3735 2.01367 12.2084 2.01367 14.3654C2.01367 17.3754 4.38968 19.9904 7.32568 19.9904H16.5757L17.2947 20.7094C17.6857 21.1004 18.3417 21.1004 18.7327 20.7094C19.1227 20.3194 19.1227 19.6624 18.7327 19.2724L17.7327 18.2724L5.73267 6.27247C5.53667 6.07647 5.26967 5.99042 5.01367 5.99042ZM7.04169 10.4495L14.5757 17.9904H7.32568C5.53868 17.9904 4.01367 16.3124 4.01367 14.3654C4.01367 12.8734 4.94767 11.6624 6.35767 11.2404C6.71567 11.1334 6.99369 10.8025 7.04169 10.4495Z" />
    </symbol>
    <symbol id="folder-plus" viewBox="0 0 24 24" fill="currentcolor">
      <path
        d="M5.99804 2.99023C4.34104 2.99023 2.99805 4.33333 2.99805 5.99023V7.99023V16.9902C2.99805 19.1992 4.78904 20.9902 6.99804 20.9902H16.998C19.207 20.9902 20.998 19.1992 20.998 16.9902V7.99023C20.998 7.43793 20.55 6.99023 19.998 6.99023C19.998 6.99023 17.095 6.99023 14.998 6.99023C14.243 6.99023 14 6.74533 13.404 5.55273C12.501 3.74533 11.743 2.99023 9.99804 2.99023H5.99804ZM5.99804 4.99023H9.99804C10.753 4.99023 10.996 5.23513 11.592 6.42773C11.722 6.68883 11.776 6.77213 11.904 6.99023C8.45804 6.99023 5.98304 6.99023 4.99804 6.99023V5.99023C4.99804 5.43793 5.44604 4.99023 5.99804 4.99023ZM11.998 10.9902C12.55 10.9902 12.998 11.4382 12.998 11.9902V12.9902H13.998C14.55 12.9902 14.998 13.4382 14.998 13.9902C14.998 14.5422 14.55 14.9902 13.998 14.9902H12.998V15.9902C12.998 16.5422 12.55 16.9902 11.998 16.9902C11.446 16.9902 10.998 16.5422 10.998 15.9902V14.9902H9.99804C9.44604 14.9902 8.99804 14.5422 8.99804 13.9902C8.99804 13.4382 9.44604 12.9902 9.99804 12.9902H10.998V11.9902C10.998 11.4382 11.446 10.9902 11.998 10.9902Z" />
    </symbol>
    <symbol id="settings" viewBox="0 0 24 24" fill="currentcolor">
      <path fill-rule="evenodd" clip-rule="evenodd"
        d="M12.5 2C13.1894 2 13.8136 2.27905 14.2659 2.73036C14.2834 2.74784 14.3007 2.76559 14.3177 2.78358C14.7174 3.20678 14.971 3.76953 14.9977 4.39107L14.9985 4.41205C14.9995 4.44124 15 4.47056 15 4.5L15 4.51426C15 4.55491 15.0247 4.59145 15.0623 4.60702C15.0998 4.62261 15.1431 4.61423 15.1719 4.58546L15.182 4.57538C15.2028 4.55456 15.2239 4.53419 15.2452 4.51426L15.2607 4.5C15.719 4.07934 16.2962 3.86073 16.8782 3.84417C16.9029 3.84346 16.9277 3.84312 16.9524 3.84315C17.5913 3.84382 18.23 4.0879 18.7175 4.57538L19.4246 5.28249C19.9121 5.76997 20.1562 6.40868 20.1569 7.0476C20.1569 7.07234 20.1565 7.09709 20.1558 7.12182C20.1393 7.70375 19.9207 8.281 19.5 8.73935L19.4857 8.75476C19.4658 8.77611 19.4454 8.7972 19.4246 8.81802L19.4145 8.82811C19.3858 8.85687 19.3774 8.90017 19.393 8.93775C19.4085 8.97529 19.4451 9 19.4857 9L19.5 9C19.5294 9 19.5588 9.00051 19.5879 9.00152L19.6089 9.00233C20.2305 9.02898 20.7932 9.28257 21.2164 9.68233C21.2344 9.69933 21.2522 9.71659 21.2696 9.73411C21.721 10.1864 22 10.8106 22 11.5L22 12.5C22 13.1894 21.721 13.8136 21.2696 14.2659C21.2522 14.2834 21.2344 14.3007 21.2164 14.3177C20.7932 14.7174 20.2305 14.971 19.6089 14.9977L19.5879 14.9985C19.5588 14.9995 19.5294 15 19.5 15L19.4857 15C19.4451 15 19.4085 15.0247 19.393 15.0623C19.3774 15.0998 19.3858 15.1431 19.4145 15.1719L19.4246 15.182C19.4454 15.2028 19.4658 15.2239 19.4857 15.2452L19.5 15.2607C19.9207 15.719 20.1393 16.2962 20.1558 16.8782C20.1565 16.9029 20.1569 16.9277 20.1569 16.9524C20.1562 17.5913 19.9121 18.23 19.4246 18.7175L18.7175 19.4246C18.23 19.9121 17.5913 20.1562 16.9524 20.1568C16.9277 20.1569 16.9029 20.1565 16.8782 20.1558C16.2963 20.1393 15.719 19.9207 15.2607 19.5L15.2452 19.4857C15.2239 19.4658 15.2028 19.4454 15.182 19.4246L15.1719 19.4145C15.1431 19.3858 15.0998 19.3774 15.0623 19.393C15.0247 19.4085 15 19.4451 15 19.4857L15 19.5C15 19.5294 14.9995 19.5588 14.9985 19.5879L14.9977 19.6089C14.971 20.2305 14.7174 20.7932 14.3177 21.2164C14.3007 21.2344 14.2834 21.2522 14.2659 21.2696C13.8136 21.7209 13.1894 22 12.5 22L11.5 22C10.8106 22 10.1864 21.7209 9.73411 21.2696C9.71659 21.2522 9.69933 21.2344 9.68233 21.2164C9.28257 20.7932 9.02898 20.2305 9.00233 19.6089L9.00152 19.5879C9.00051 19.5588 9 19.5294 9 19.5L9 19.4857C9 19.4451 8.97529 19.4085 8.93774 19.393C8.90017 19.3774 8.85687 19.3858 8.8281 19.4145L8.81802 19.4246C8.7972 19.4454 8.77611 19.4658 8.75475 19.4857L8.73934 19.5C8.281 19.9207 7.70375 20.1393 7.12182 20.1558C7.09708 20.1565 7.07234 20.1569 7.0476 20.1568C6.40868 20.1562 5.76997 19.9121 5.28249 19.4246L4.57538 18.7175C4.0879 18.23 3.84382 17.5913 3.84315 16.9524C3.84312 16.9277 3.84346 16.9029 3.84417 16.8782C3.86073 16.2962 4.07934 15.719 4.5 15.2607L4.51426 15.2452C4.53419 15.2239 4.55456 15.2028 4.57538 15.182L4.58546 15.1719C4.61423 15.1431 4.62261 15.0998 4.60702 15.0623C4.59145 15.0247 4.55491 15 4.51426 15L4.5 15C4.47056 15 4.44125 14.9995 4.41205 14.9985L4.39107 14.9977C3.76953 14.971 3.20678 14.7174 2.78358 14.3177C2.76558 14.3007 2.74784 14.2834 2.73036 14.2659C2.27905 13.8136 2 13.1894 2 12.5L2 11.5C2 10.8106 2.27905 10.1864 2.73036 9.73411C2.74784 9.71659 2.76558 9.69933 2.78358 9.68233C3.20678 9.28257 3.76953 9.02898 4.39107 9.00233L4.41205 9.00152C4.44125 9.00051 4.47056 9 4.5 9L4.51426 9C4.55491 9 4.59145 8.97529 4.60702 8.93775C4.62261 8.90017 4.61423 8.85687 4.58546 8.82811L4.57538 8.81802C4.55456 8.7972 4.53419 8.77611 4.51426 8.75476L4.5 8.73935C4.07934 8.281 3.86073 7.70375 3.84417 7.12182C3.84346 7.09709 3.84312 7.07234 3.84315 7.0476C3.84382 6.40868 4.0879 5.76997 4.57538 5.28249L5.28249 4.57538C5.76997 4.0879 6.40868 3.84382 7.0476 3.84315C7.07234 3.84312 7.09709 3.84346 7.12182 3.84417C7.70375 3.86073 8.281 4.07934 8.73934 4.5L8.75476 4.51426C8.77611 4.53419 8.7972 4.55456 8.81802 4.57538L8.8281 4.58546C8.85687 4.61423 8.90017 4.62261 8.93775 4.60702C8.97529 4.59145 9 4.55491 9 4.51426L9 4.5C9 4.47056 9.00051 4.44124 9.00152 4.41205L9.00233 4.39107C9.02898 3.76953 9.28257 3.20678 9.68233 2.78358C9.69933 2.76559 9.71659 2.74784 9.73411 2.73036C10.1864 2.27905 10.8106 2 11.5 2L12.5 2ZM11 19.5C11 19.7761 11.2239 20 11.5 20L12.5 20C12.7761 20 13 19.7761 13 19.5L13 19.4857C13 18.6262 13.5212 17.8669 14.2962 17.5455C15.0727 17.2235 15.9787 17.3929 16.5861 18.0003L16.5962 18.0104C16.7915 18.2057 17.108 18.2057 17.3033 18.0104L18.0104 17.3033C18.2057 17.108 18.2057 16.7915 18.0104 16.5962L18.0003 16.5861C17.3929 15.9787 17.2235 15.0727 17.5455 14.2961C17.8669 13.5212 18.6262 13 19.4857 13L19.5 13C19.7761 13 20 12.7761 20 12.5L20 11.5C20 11.2239 19.7761 11 19.5 11L19.4857 11C18.6262 11 17.8669 10.4788 17.5455 9.70385C17.2235 8.92727 17.3929 8.02132 18.0003 7.41389L18.0104 7.40381C18.2057 7.20854 18.2057 6.89196 18.0104 6.6967L17.3033 5.98959C17.108 5.79433 16.7915 5.79433 16.5962 5.98959L16.5861 5.99968C15.9787 6.60711 15.0727 6.77651 14.2962 6.45448C13.5212 6.13311 13 5.37381 13 4.51426L13 4.5C13 4.22386 12.7761 4 12.5 4L11.5 4C11.2239 4 11 4.22386 11 4.5L11 4.51426C11 5.37381 10.4788 6.13311 9.70384 6.45448C8.92725 6.77651 8.02132 6.60711 7.41389 5.99968L7.40381 5.98959C7.20854 5.79433 6.89196 5.79433 6.6967 5.98959L5.98959 6.6967C5.79433 6.89196 5.79433 7.20854 5.98959 7.40381L5.99967 7.41389C6.60711 8.02132 6.77651 8.92727 6.45448 9.70385C6.13311 10.4788 5.37382 11 4.51426 11L4.5 11C4.22386 11 4 11.2239 4 11.5L4 12.5C4 12.7761 4.22386 13 4.5 13L4.51426 13C5.37382 13 6.13311 13.5212 6.45447 14.2961C6.77651 15.0727 6.60711 15.9787 5.99968 16.5861L5.98959 16.5962C5.79433 16.7915 5.79433 17.108 5.98959 17.3033L6.6967 18.0104C6.89196 18.2057 7.20854 18.2057 7.4038 18.0104L7.41389 18.0003C8.02132 17.3929 8.92726 17.2235 9.70384 17.5455C10.4788 17.8669 11 18.6262 11 19.4857L11 19.5Z" />
      <path fill-rule="evenodd" clip-rule="evenodd"
        d="M12 14C13.1046 14 14 13.1046 14 12C14 10.8954 13.1046 10 12 10C10.8954 10 10 10.8954 10 12C10 13.1046 10.8954 14 12 14ZM12 16C14.2091 16 16 14.2091 16 12C16 9.79086 14.2091 8 12 8C9.79086 8 8 9.79086 8 12C8 14.2091 9.79086 16 12 16Z" />
    </symbol>
    <symbol id="folder-close" viewBox="0 0 24 24" fill="currentcolor">
      <path
        d="M5.99804 2.99023C4.24404 2.99123 3.00805 4.21723 2.99805 5.99023V7.99023C2.99905 8.03023 2.99805 16.9902 2.99805 16.9902C2.99805 19.1992 4.78904 20.9902 6.99804 20.9902H16.998C19.207 20.9902 20.998 19.1992 20.998 16.9902V10.9902C20.997 10.9052 20.998 9.14824 20.998 9.02124C21.005 7.28024 19.72 5.99723 17.998 5.99023C17.726 5.98923 17.051 5.98923 17.061 5.99023C16.138 5.98723 15.925 5.80324 15.342 4.92824C14.425 3.55324 13.653 2.99023 11.998 2.99023H5.99804ZM5.99804 4.99023H11.998C12.843 4.99023 13.071 5.17723 13.654 6.05223C14.571 7.42723 15.343 7.99023 16.998 7.99023C16.972 7.99123 17.722 7.98923 17.998 7.99023C18.622 7.99323 19.001 8.39124 18.998 9.02124C18.998 9.08524 18.997 9.52623 18.998 9.99023C18.358 9.99023 18.198 9.99023 14.998 9.99023C14.153 9.99023 13.925 9.80324 13.342 8.92824C12.425 7.55324 11.653 6.99023 9.99804 6.99023C9.11304 6.99023 6.43404 6.99023 4.99804 6.99023V5.99023C5.00204 5.32623 5.34004 4.99023 5.99804 4.99023Z" />
    </symbol>
    <symbol id="server" viewBox="0 0 24 24" fill="currentcolor">
      <path
        d="M11.998 1.95312C7.63605 1.95312 3.99805 3.51213 3.99805 5.95312C3.99805 8.39412 7.63605 9.95312 11.998 9.95312C16.36 9.95312 19.998 8.39412 19.998 5.95312C19.998 3.51213 16.36 1.95312 11.998 1.95312ZM3.99805 9.57812V11.9531C3.99805 14.3941 7.63605 15.9531 11.998 15.9531C16.36 15.9531 19.998 14.3941 19.998 11.9531V9.57812C18.184 11.0681 15.356 11.9531 11.998 11.9531C8.64005 11.9531 5.81205 11.0681 3.99805 9.57812ZM3.99805 15.5781V17.9531C3.99805 20.3941 7.63605 21.9531 11.998 21.9531C16.36 21.9531 19.998 20.3941 19.998 17.9531V15.5781C18.184 17.0681 15.356 17.9531 11.998 17.9531C8.64005 17.9531 5.81205 17.0681 3.99805 15.5781Z" />
    </symbol>
    <symbol id="check-circle" viewBox="0 0 24 24" fill="none">
      <circle cx="12" cy="12" r="10" fill="none" />
      <path
        d="M10.1575 16.8849C10.5032 16.8849 10.8257 16.7467 11.0562 16.5162L18.3142 9.25817L16.517 7.46094L10.1575 13.8204L7.48473 11.1476L5.6875 12.9448L9.25893 16.5162C9.48934 16.7467 9.81192 16.8849 10.1575 16.8849Z"
        fill="currentcolor" />
      <path
        d="M2.51367 12C2.51367 6.75314 6.76701 2.5 12.0137 2.5C17.2603 2.5 21.5137 6.75314 21.5137 12C21.5137 17.2468 17.2603 21.5 12.0137 21.5C6.76701 21.5 2.51367 17.2468 2.51367 12Z"
        stroke="currentcolor" />
    </symbol>
    <symbol id="gear" viewBox="0 0 16 16" fill="currentcolor">
      <path
        d="M5.97803 1.63718C5.03269 1.93652 4.21736 2.42652 3.4987 3.09519C3.2767 3.30252 3.2087 3.64052 3.3527 3.90785C3.8867 4.89519 3.32802 5.95119 2.12402 6.01186C1.82869 6.02719 1.56803 6.24518 1.4987 6.53252C1.37936 7.02918 1.33203 7.44519 1.33203 7.99118C1.33203 8.44918 1.38136 8.96719 1.47803 9.42852C1.53803 9.71652 1.7887 9.92385 2.08203 9.94985C3.29403 10.0545 3.89404 10.9785 3.3527 12.1578C3.2327 12.4198 3.28736 12.7332 3.4987 12.9285C4.2067 13.5839 5.02003 14.0452 5.97803 14.3452C6.25136 14.4312 6.56003 14.3279 6.72803 14.0952C7.46936 13.0699 8.5447 13.0659 9.2487 14.0952C9.4147 14.3379 9.7187 14.4545 9.9987 14.3658C10.9234 14.0752 11.7847 13.5799 12.4987 12.9285C12.7187 12.7285 12.7767 12.4038 12.6447 12.1372C12.09 11.0178 12.728 9.98985 13.8734 9.97051C14.1774 9.96518 14.448 9.76518 14.5194 9.47051C14.6347 8.99251 14.6654 8.57585 14.6654 7.99118C14.6654 7.48852 14.606 6.99319 14.4987 6.51186C14.4307 6.20786 14.1647 5.99185 13.8527 5.99119C12.7254 5.98919 12.0934 4.88119 12.6447 3.90785C12.798 3.63652 12.75 3.30452 12.5194 3.09519C11.7927 2.43519 10.9067 1.91985 9.97803 1.63718C9.69269 1.55052 9.38936 1.65719 9.22803 1.90785C8.58403 2.90785 7.38136 2.92586 6.7487 1.92853C6.5867 1.67319 6.26603 1.54518 5.97803 1.63718ZM7.9987 5.32452C9.47136 5.32452 10.6654 6.51852 10.6654 7.99118C10.6654 9.46385 9.47136 10.6579 7.9987 10.6579C6.52603 10.6579 5.33203 9.46385 5.33203 7.99118C5.33203 6.51852 6.52603 5.32452 7.9987 5.32452Z" />
    </symbol>
    <symbol id="pencil" viewBox="0 0 24 24" fill="currentcolor">
      <path
        d="M16.9951 1.95312C16.7301 1.95312 16.4641 2.04713 16.2761 2.23413C15.7201 2.79013 13.7191 4.79115 13.2751 5.23615L4.26978 14.2412L3.26928 15.2412C3.12958 15.3812 3.05788 15.5792 3.01918 15.7732L2.01858 20.7762C1.87858 21.4762 2.47538 22.0721 3.17548 21.9331C3.80078 21.8071 7.55288 21.0572 8.17818 20.9322C8.37188 20.8932 8.57008 20.8212 8.70968 20.6822L9.71027 19.6812L18.7151 10.6762C19.1601 10.2322 21.1611 8.23012 21.7171 7.67512C21.9041 7.48712 21.9981 7.22113 21.9981 6.95613C21.9981 5.31912 21.5811 4.14912 20.7161 3.26612C19.8431 2.37511 18.6771 1.95312 16.9951 1.95312ZM17.3891 3.97211C18.2921 4.02511 18.8771 4.23216 19.2781 4.64216C19.6881 5.06016 19.9471 5.64015 20.0031 6.52516C19.4551 7.07216 18.6531 7.86212 17.9961 8.51912C17.2031 7.72612 16.2251 6.74815 15.4321 5.95515C16.0901 5.29815 16.8421 4.51911 17.3891 3.97211ZM4.98898 16.3982L7.55288 18.9621L7.45908 19.0562C6.79908 19.1882 5.46628 19.4672 4.23858 19.7132L4.89518 16.4922L4.98898 16.3982Z" />
    </symbol>
    <symbol id="person" viewBox="0 0 16 16" fill="currentcolor">
      <path
        d="M7.9974 1.30273C6.15646 1.30273 4.66406 2.79513 4.66406 4.63607C4.66406 6.477 6.15646 7.9694 7.9974 7.9694C9.83833 7.9694 11.3307 6.477 11.3307 4.63607C11.3307 2.79513 9.83833 1.30273 7.9974 1.30273ZM5.64326 8.8444C3.9004 9.32073 2.66406 10.8362 2.66406 12.6361V13.9694C2.66406 14.3376 2.96253 14.6361 3.33073 14.6361H12.6641C13.0323 14.6361 13.3307 14.3376 13.3307 13.9694V12.6361C13.3307 10.8362 12.0944 9.32073 10.3515 8.8444C10.2021 8.80353 10.0553 8.8224 9.91406 8.88607C9.30373 9.16113 8.654 9.30273 7.9974 9.30273C7.3408 9.30273 6.69106 9.16113 6.08073 8.88607C5.93946 8.8224 5.79266 8.80353 5.64326 8.8444Z" />
    </symbol>
    <symbol id="hdd" viewBox="0 0 24 25" fill="currentcolor">
      <path
        d="M7.24956 4.68945C5.17156 4.68945 3.27058 6.40045 2.93758 8.53345L1.99956 15.5645C1.98756 15.6545 2.05058 15.7285 2.06258 15.8145C2.04858 15.9415 1.99956 16.0585 1.99956 16.1895V17.1895C1.99956 19.1225 3.56656 20.6895 5.49956 20.6895H18.4996C20.4326 20.6895 21.9996 19.1225 21.9996 17.1895V16.1895C21.9996 16.0585 21.9516 15.9415 21.9376 15.8145C21.9496 15.7285 22.0126 15.6545 21.9996 15.5645L20.9996 8.56445C20.6646 6.41545 18.7966 4.68945 16.7186 4.68945H7.24956ZM5.49956 14.6895H18.4996C19.3286 14.6895 19.9996 15.3615 19.9996 16.1895V17.1895C19.9996 18.0175 19.3286 18.6895 18.4996 18.6895H5.49956C4.67156 18.6895 3.99956 18.0175 3.99956 17.1895V16.1895C3.99956 15.3615 4.67156 14.6895 5.49956 14.6895ZM5.99956 15.6895C5.44756 15.6895 4.99956 16.1375 4.99956 16.6895C4.99956 17.2415 5.44756 17.6895 5.99956 17.6895C6.55256 17.6895 6.99956 17.2415 6.99956 16.6895C6.99956 16.1375 6.55256 15.6895 5.99956 15.6895ZM8.99956 15.6895C8.44756 15.6895 7.99956 16.1375 7.99956 16.6895C7.99956 17.2415 8.44756 17.6895 8.99956 17.6895C9.55256 17.6895 9.99956 17.2415 9.99956 16.6895C9.99956 16.1375 9.55256 15.6895 8.99956 15.6895Z" />
    </symbol>
    <symbol id="project" viewBox="0 0 16 16" fill="currentcolor">
      <path
        d="M11.4561 1.95312C12.8734 1.95312 13.998 3.15579 13.998 4.61979V11.2865C13.998 12.7505 12.8734 13.9531 11.4561 13.9531H11.3314V1.95312H11.4561ZM9.99805 1.95312V13.9531H4.53939C3.12272 13.9531 1.99805 12.7505 1.99805 11.2865V4.61979C1.99805 3.15579 3.12272 1.95312 4.53939 1.95312H9.99805ZM7.33138 4.61979H4.66471C4.29671 4.61979 3.99805 4.91846 3.99805 5.28646C3.99805 5.65446 4.29671 5.95312 4.66471 5.95312H7.33138C7.69938 5.95312 7.99805 5.65446 7.99805 5.28646C7.99805 4.91846 7.69938 4.61979 7.33138 4.61979ZM7.33138 7.28646H4.66471C4.29671 7.28646 3.99805 7.58512 3.99805 7.95312C3.99805 8.32112 4.29671 8.61979 4.66471 8.61979H7.33138C7.69938 8.61979 7.99805 8.32112 7.99805 7.95312C7.99805 7.58512 7.69938 7.28646 7.33138 7.28646ZM7.33138 9.95312H4.66471C4.29671 9.95312 3.99805 10.2518 3.99805 10.6198C3.99805 10.9878 4.29671 11.2865 4.66471 11.2865H7.33138C7.69938 11.2865 7.99805 10.9878 7.99805 10.6198C7.99805 10.2518 7.69938 9.95312 7.33138 9.95312Z" />
    </symbol>
    <symbol id="files-earmark" viewBox="0 0 20 20" fill="currentcolor">
      <path
        d="M8.33139 1.67773C5.36388 1.67773 2.49805 4.5159 2.49805 7.48507C2.49805 7.49365 2.49805 7.5024 2.49805 7.51107C2.49805 9.56107 2.49805 12.008 2.49805 12.2246C2.49805 13.7777 3.84056 15.0111 5.46639 15.0111H5.83139V15.5579C5.83139 17.1111 7.1739 18.3444 8.79973 18.3444H14.5297C16.1556 18.3444 17.4981 17.1111 17.4981 15.5579V7.79757C17.4981 6.2444 16.1556 5.01107 14.5297 5.01107H14.1647V4.46423C14.1647 2.91107 12.8222 1.67773 11.1964 1.67773C11.0181 1.67773 11.0097 1.67773 8.33139 1.67773ZM7.49805 3.55273V5.5579C7.49805 6.15257 6.93638 6.67773 6.19638 6.67773H4.34721C4.72971 5.20507 6.02139 3.94473 7.49805 3.55273ZM14.1647 6.67773H14.5297C15.2697 6.67773 15.8314 7.2029 15.8314 7.79757V15.5579C15.8314 16.1526 15.2697 16.6777 14.5297 16.6777H8.79973C8.05973 16.6777 7.49805 16.1526 7.49805 15.5579V15.0111H11.1964C12.8222 15.0111 14.1647 13.7777 14.1647 12.2246V6.67773Z" />
    </symbol>
    <symbol id="globe" viewBox="0 0 16 16" fill="currentcolor">
      <path
        d="M7.9987 1.34375C4.31683 1.34375 1.33203 4.32842 1.33203 8.01042C1.33203 9.08775 1.5899 10.1018 2.04343 11.0024C3.14036 13.1804 5.32943 14.6764 7.9987 14.6771C11.6806 14.6777 14.6654 11.6924 14.6654 8.01042C14.6654 4.32842 11.6806 1.34375 7.9987 1.34375ZM7.9987 2.67708C8.61997 2.67708 9.33403 3.73641 9.68937 5.29441C9.14997 5.32908 8.5851 5.34375 7.9987 5.34375C7.40983 5.34375 6.8449 5.32175 6.30477 5.28575C6.65983 3.78575 7.37743 2.67708 7.9987 2.67708ZM5.6419 3.22575C5.33797 3.78508 5.11463 4.49575 4.96296 5.16575C4.46976 5.09908 4.0233 5.00242 3.64763 4.90708C4.16463 4.19975 4.85216 3.60308 5.6419 3.22575ZM10.365 3.22174C11.0894 3.59641 11.82 4.19109 12.3484 4.91909C11.9732 5.01309 11.5143 5.09643 11.0237 5.16109C10.872 4.49109 10.6166 3.74641 10.365 3.22174ZM3.01483 6.11041C3.52043 6.26441 4.04203 6.37908 4.74337 6.47308C4.68583 6.98042 4.66536 7.46708 4.66536 8.01042C4.66536 8.55375 4.6907 9.04908 4.74823 9.55642C4.03343 9.65242 3.5151 9.74575 3.00183 9.90175C2.7663 9.29975 2.66536 8.69575 2.66536 8.01042C2.66536 7.32508 2.7793 6.71241 3.01483 6.11041ZM12.9766 6.11375C13.2122 6.71575 13.332 7.32508 13.332 8.01042C13.332 8.69575 13.2171 9.30175 12.9816 9.90375C12.4697 9.74775 11.9517 9.64308 11.2396 9.54775C11.2957 9.04575 11.332 8.54642 11.332 8.01042C11.332 7.46708 11.2956 6.97107 11.238 6.46307C11.9378 6.36641 12.4709 6.26708 12.9766 6.11375ZM6.08396 6.60175C6.7019 6.64641 7.3245 6.67708 7.9987 6.67708C8.6691 6.67708 9.30243 6.64642 9.9175 6.59975C9.97377 7.06842 9.9987 7.49575 9.9987 8.01042C9.9987 8.52508 9.98077 8.94108 9.92457 9.40908C9.30743 9.36374 8.67077 9.34375 7.9987 9.34375C7.3249 9.34375 6.69417 9.36776 6.07457 9.41376C6.01677 8.93976 5.9987 8.53308 5.9987 8.01042C5.9987 7.49575 6.0277 7.06975 6.08396 6.60175ZM7.9987 10.6771C8.58423 10.6771 9.1457 10.6991 9.6849 10.7337C9.30983 12.2944 8.62263 13.3437 7.9987 13.3437C7.37743 13.3437 6.67576 12.2438 6.2909 10.7324C6.83176 10.6964 7.4089 10.6771 7.9987 10.6771ZM4.96603 10.8624C5.11763 11.5324 5.3815 12.2678 5.6331 12.7931C4.89496 12.4424 4.18623 11.8384 3.6459 11.1144C4.0279 11.0178 4.46037 10.9298 4.96603 10.8624ZM11.0257 10.8611C11.5274 10.9264 11.9618 11.0211 12.3431 11.1164C11.86 11.7657 11.1508 12.4084 10.3716 12.7844C10.6558 12.2044 10.874 11.5311 11.0257 10.8611Z" />
    </symbol>
    <symbol id="arrow-left" viewBox="0 0 16 16" fill="none" stroke="currentcolor">
      <path d="M8 1L0.999998 8M0.999998 8L8 15M0.999998 8L15 8" stroke-width="2" stroke-linecap="round"
        stroke-linejoin="round" />
    </symbol>
    <symbol id="arrow-up" viewBox="0 0 20 21" fill="currentcolor">
      <path
        d="M9.98893 18.8223C14.5914 18.8223 18.3223 15.0913 18.3223 10.4889C18.3223 5.88642 14.5914 2.15559 9.98893 2.15559C5.38643 2.15559 1.6556 5.88642 1.6556 10.4889C1.6556 15.0913 5.38643 18.8223 9.98893 18.8223ZM9.98893 14.6556C9.52893 14.6556 9.1556 14.2825 9.1556 13.8223L9.1556 9.65559L6.6556 9.65559L9.98893 6.32226L13.3223 9.65559L10.8223 9.65559L10.8223 13.8223C10.8223 14.2825 10.4489 14.6556 9.98893 14.6556Z" />
    </symbol>
    <symbol id="caret" viewBox="0 0 24 24" fill="currentcolor">
      <path d="M10 16L10 12.8L10 11.2L10 8L14 12L10 16Z" />
    </symbol>
    <symbol id="m" viewBox="0 0 24 24" fill="none">
      <path
        d="M1.88134 8.65644V18.3251H0V7.09336C0 6.19326 1.03474 5.68003 1.75748 6.22134L10.6938 12.912C10.9698 13.1179 11.1313 13.4409 11.1313 13.784V18.3235H9.24992V14.174L1.88134 8.65644Z"
        fill="currentcolor" />
      <path
        d="M22.0605 18.3251V8.65599L14.4616 14.1738V18.3251H12.5215V13.7854C12.5215 13.4422 12.688 13.1193 12.9726 12.9133L22.1882 6.22233C22.9335 5.67944 24.0006 6.19269 24.0006 7.09283V18.3251H22.0605Z"
        fill="currentcolor" />
    </symbol>
    <symbol id="vertical-dots" viewBox="0 0 24 25" fill="currentcolor">
      <path
        d="M14.0098 4.64453C14.0098 3.53953 13.1144 2.64453 12.0098 2.64453C10.9052 2.64453 10.0098 3.53953 10.0098 4.64453C10.0098 5.74952 10.9052 6.64452 12.0098 6.64452C13.1144 6.64452 14.0098 5.74952 14.0098 4.64453ZM14.0098 12.6445C14.0098 11.5395 13.1144 10.6445 12.0098 10.6445C10.9052 10.6445 10.0098 11.5395 10.0098 12.6445C10.0098 13.7495 10.9052 14.6445 12.0098 14.6445C13.1144 14.6445 14.0098 13.7495 14.0098 12.6445ZM14.0098 20.6445C14.0098 19.5395 13.1144 18.6445 12.0098 18.6445C10.9052 18.6445 10.0098 19.5395 10.0098 20.6445C10.0098 21.7495 10.9052 22.6445 12.0098 22.6445C13.1144 22.6445 14.0098 21.7495 14.0098 20.6445Z" />
    </symbol>
    <symbol id="briefcase" viewBox="0 0 16 16" fill="currentcolor">
      <path
        d="M7.33203 1.99414C5.85936 1.99414 4.66536 3.18814 4.66536 4.66081H3.9987C2.61203 4.66081 1.50204 5.72481 1.37337 7.07747C1.71071 7.19281 6.22803 8.70282 6.22803 8.70215C7.18469 9.02148 8.8127 9.02148 9.76937 8.70215C9.76937 8.70215 13.224 7.54881 14.6447 7.07747C14.5214 5.71947 13.3887 4.66081 11.9987 4.66081H11.332C11.332 3.18814 10.138 1.99414 8.66536 1.99414H7.33203ZM7.33203 3.32747H8.66536C9.40203 3.32747 9.9987 3.92414 9.9987 4.66081H5.9987C5.9987 3.92414 6.59536 3.32747 7.33203 3.32747ZM1.33203 8.47347V11.3275C1.33203 12.8001 2.52603 13.9941 3.9987 13.9941H11.9987C13.4714 13.9941 14.6654 12.8001 14.6654 11.3275V8.47347L10.186 9.97347C8.95603 10.3835 7.04136 10.3835 5.81136 9.97347L1.33203 8.47347Z" />
    </symbol>
    <symbol id="circle" viewBox="0 0 20 20" fill="currentcolor">
      <circle cx="10" cy="10" r="10" />
    </symbol>
    <symbol id="error" viewBox="0 0 20 20" fill="currentcolor">
      <path
        d="M10.0141 -0.00109673C4.49115 -0.00109673 0.0141468 4.4759 0.0141468 9.9989C0.0141468 15.5219 4.49115 19.9989 10.0141 19.9989C15.5371 19.9989 20.0141 15.5219 20.0141 9.9989C20.0141 4.4759 15.5371 -0.00109673 10.0141 -0.00109673ZM10.0141 4.9989C10.5661 4.9989 11.0141 5.4469 11.0141 5.9989V10.9989C11.0141 11.5509 10.5661 11.9989 10.0141 11.9989C9.46215 11.9989 9.01415 11.5509 9.01415 10.9989V5.9989C9.01415 5.4469 9.46215 4.9989 10.0141 4.9989ZM10.0141 12.9989C10.5661 12.9989 11.0141 13.4469 11.0141 13.9989C11.0141 14.5509 10.5661 14.9989 10.0141 14.9989C9.46215 14.9989 9.01415 14.5509 9.01415 13.9989C9.01415 13.4469 9.46215 12.9989 10.0141 12.9989Z" />
    </symbol>
    <symbol id="synced" viewBox="0 0 20 20" fill="currentcolor">
      <path
        d="M10.0142 0.0141163C4.49116 0.0141163 0.0141621 4.49132 0.0141621 10.0141C0.0141621 15.5371 4.49116 20.0141 10.0142 20.0141C15.5372 20.0141 20.0142 15.5371 20.0142 10.0141C20.0142 4.49132 15.5372 0.0141163 10.0142 0.0141163ZM10.0142 5.01412C10.5662 5.01412 11.0142 5.46182 11.0142 6.01412V11.0141H14.0142L10.0142 15.0141L6.01416 11.0141H9.01416V6.01412C9.01416 5.46182 9.46216 5.01412 10.0142 5.01412Z" />
    </symbol>
    <symbol id="syncing" viewBox="0 0 20 20" fill="currentcolor">
      <path
        d="M9.71901 0.00395616C7.11583 0.0772 4.6439 1.16304 2.82889 3.03057C1.01388 4.8981 -0.00102408 7.4 7.75429e-07 10.0042C0.00118655 12.6557 1.05531 15.1981 2.93059 17.0726C4.80588 18.947 7.34881 20 10.0003 20C12.6517 20 15.1947 18.947 17.07 17.0726C18.9452 15.1981 19.9994 12.6557 20.0005 10.0042C20.0011 8.66695 19.7334 7.34317 19.2133 6.11118C18.6933 4.87919 17.9314 3.76401 16.9728 2.83162C16.0142 1.89924 14.8783 1.16861 13.6324 0.682915C12.3864 0.197221 11.0557 -0.0336543 9.71901 0.00395616ZM10.0003 5.00406C11.3803 5.00406 12.6246 5.51032 13.5316 6.41035L15.0004 5.00406V9.0042H14.9067H13.3129H11.0004L12.4379 7.50416C11.8209 6.90414 10.9696 6.5041 10.0316 6.5041C8.48253 6.5041 7.19525 7.60412 6.75024 9.0042H5.09394C5.55995 6.70414 7.58421 5.00406 10.0003 5.00406ZM5.00014 11.0043H5.09384H6.68763H9.0002L7.56266 12.4105C8.17967 13.0106 9.03094 13.4106 9.96897 13.4106C11.518 13.4106 12.8053 12.4043 13.2503 11.0043H14.9066C14.4406 13.2043 12.4163 15.0043 10.0002 15.0043C8.62019 15.0043 7.3759 14.4043 6.46888 13.5043L5.00009 15.0043L5.00014 11.0043Z" />
    </symbol>
    <symbol id="people" viewBox="0 0 24 24" fill="currentcolor">
      <path
        d="M15.498 2.92969C13.0127 2.92969 10.998 4.94469 10.998 7.42969C10.998 9.91469 13.0127 11.9297 15.498 11.9297C17.9833 11.9297 19.998 9.91469 19.998 7.42969C19.998 4.94469 17.9833 2.92969 15.498 2.92969ZM7.99805 3.92969C5.78895 3.92969 3.99805 5.72069 3.99805 7.92969C3.99805 10.1387 5.78895 11.9297 7.99805 11.9297C8.82745 11.9297 9.58455 11.7017 10.2508 11.2357C8.54205 8.69572 8.78425 6.26369 9.71555 4.30469C9.18365 4.05269 8.59945 3.92969 7.99805 3.92969ZM5.06055 13.2737C3.22645 14.0307 1.99805 15.8857 1.99805 17.9297V19.9297C1.99805 20.4817 2.44575 20.9297 2.99805 20.9297L7.15085 20.9317C6.91685 20.1717 6.98565 18.9397 7.00105 17.9427C7.03355 15.8257 7.90905 14.3157 8.25195 13.9177C7.62175 13.9127 6.86545 13.7597 6.31055 13.5237C6.17655 13.4667 6.09875 13.4217 5.84185 13.3047C5.58995 13.1897 5.31635 13.1677 5.06055 13.2737ZM12.0605 13.2737C10.2264 14.0307 8.99805 15.8857 8.99805 17.9297V19.9297C8.99805 20.4817 9.44575 20.9297 9.99805 20.9297H20.998C21.5503 20.9297 21.998 20.4817 21.998 19.9297V17.9297C21.998 15.9337 20.7628 14.1237 18.9355 13.3357C18.6783 13.2247 18.3786 13.2217 18.123 13.3357C17.2382 13.7327 16.3762 13.9297 15.498 13.9297C14.6228 13.9297 13.7578 13.7217 12.8418 13.3047C12.5899 13.1897 12.3163 13.1677 12.0605 13.2737Z" />
    </symbol>
    <symbol id="lock" viewBox="0 0 24 24" fill="currentcolor">
      <path
        d="M11.998 1.95312C9.23705 1.95312 6.99805 4.19213 6.99805 6.95312V8.95312C5.34105 8.95312 3.99805 10.2961 3.99805 11.9531V18.9531C3.99805 20.6101 5.34105 21.9531 6.99805 21.9531H16.998C18.655 21.9531 19.998 20.6101 19.998 18.9531V11.9531C19.998 10.2961 18.655 8.95312 16.998 8.95312V6.95312C16.998 4.19213 14.759 1.95312 11.998 1.95312ZM11.998 3.95312C13.655 3.95312 14.998 5.29612 14.998 6.95312V8.95312H8.99805V6.95312C8.99805 5.29612 10.341 3.95312 11.998 3.95312ZM11.998 11.9531C13.103 11.9531 13.998 12.8481 13.998 13.9531C13.998 14.6631 13.555 15.1611 12.998 15.5151V17.9531C12.998 18.5051 12.55 18.9531 11.998 18.9531C11.446 18.9531 10.998 18.5051 10.998 17.9531V15.5151C10.441 15.1601 9.99805 14.6631 9.99805 13.9531C9.99805 12.8481 10.893 11.9531 11.998 11.9531Z" />
    </symbol>
    <symbol id="drive" viewBox="0 0 20 16" fill="currentcolor">
      <path
        d="M20 1.84472C20 1.46377 19.7836 1.11591 19.4418 0.94761L18.088 0.28089C17.7399 0.109485 17.3242 0.154861 17.0213 0.397305L10.9046 5.29345L13.3938 7.26606L16.9338 4.43246V11.5763L2.94616 0.468456C2.64307 0.227771 2.22832 0.183587 1.88133 0.355019L0.557054 1.00929C0.215927 1.17782 0 1.52534 0 1.90583V14.1546C0 14.5354 0.216328 14.8832 0.557941 15.0516L1.9119 15.7189C2.26 15.8904 2.67592 15.8451 2.97888 15.6026L9.05159 10.7415L6.56234 8.76886L3.06621 11.5675V4.48484L17.0477 15.5957C17.3508 15.8366 17.7658 15.8809 18.1129 15.7093L19.4431 15.0519C19.7841 14.8833 20 14.5358 20 14.1554V1.84472Z" />
    </symbol>
    <symbol id="brick-globe" viewBox="0 0 18 19" fill="currentcolor">
      <path
        d="M8.27293 3.26461C8.46408 3.26461 8.61903 3.10949 8.61904 2.91815L8.6191 0.500008C6.2185 0.599662 4.06088 1.64036 2.50446 3.26475L8.27293 3.26461ZM10.6957 6.82116C10.6957 7.0125 10.5407 7.16762 10.3496 7.16762L0.304562 7.16782C0.613333 6.01248 1.14583 4.94828 1.85198 4.02532L10.3496 4.02518C10.5408 4.02518 10.6957 4.1803 10.6957 4.37166L10.6957 6.82116ZM15.4943 15.7353C13.9385 17.3591 11.7809 18.3997 9.37968 18.5L9.37974 16.0819C9.37974 15.8905 9.5347 15.7354 9.72585 15.7354L15.4943 15.7353ZM8.61928 18.4994C6.21868 18.3999 4.06051 17.3587 2.50477 15.735L8.2732 15.7348C8.46437 15.7348 8.61934 15.89 8.61933 16.0813L8.61928 18.4994ZM13.196 12.1777C13.196 11.9864 13.3509 11.8313 13.5421 11.8312L17.6942 11.831C17.3854 12.9863 16.8536 14.0499 16.1468 14.9735L13.5421 14.9737C13.3509 14.9737 13.1959 14.8186 13.1959 14.6272L13.196 12.1777ZM6.63574 8.26583C6.64045 8.07793 6.79397 7.92806 6.98174 7.92805L17.8631 7.92797C17.953 8.43803 18 8.96317 18 9.49919C18 10.0352 17.9529 10.5604 17.8631 11.0704L6.98317 11.07C6.79504 11.0699 6.64138 10.9195 6.63718 10.7312L6.6074 9.39625L6.63574 8.26583ZM12.5542 14.6279C12.5542 14.8192 12.3992 14.9743 12.2081 14.9743L1.85233 14.9744C1.14562 14.0509 0.613778 12.9873 0.305062 11.832L12.2081 11.8319C12.3993 11.8319 12.5543 11.987 12.5543 12.1784L12.5542 14.6279ZM0.136912 7.92839L5.5227 7.92809C5.71386 7.92809 5.86883 8.08321 5.86883 8.27457L5.86877 10.7241C5.86877 10.9154 5.71381 11.0705 5.52266 11.0706L0.136834 11.0708C0.046996 10.5608 -1.44252e-05 10.0356 -1.12058e-06 9.49961C1.02767e-05 8.9636 0.0470512 8.43845 0.136912 7.92839ZM11.4567 4.3716C11.4567 4.18026 11.6117 4.02515 11.8028 4.02514L16.1471 4.02498C16.8538 4.94851 17.3856 6.01207 17.6943 7.1674L11.8028 7.1676C11.6116 7.1676 11.4567 7.01248 11.4567 6.82112L11.4567 4.3716ZM9.3801 0.500001C11.7807 0.599542 13.9389 1.64073 15.4946 3.26444L9.72617 3.26457C9.53501 3.26458 9.38004 3.10945 9.38004 2.9181L9.3801 0.500001Z" />
    </symbol>
    <symbol id="xmark-light" viewBox="0 0 16 16" fill="currentcolor">
      <path
        d="M3.32875 2.60352C3.15815 2.60352 2.97975 2.66085 2.84955 2.79085C2.58921 3.05152 2.58921 3.48884 2.84955 3.74951L7.03708 7.93685L2.84955 12.1242C2.58921 12.3849 2.58921 12.8222 2.84955 13.0828C3.10995 13.3428 3.54755 13.3428 3.80795 13.0828L7.99541 8.89552L12.1829 13.0828C12.4433 13.3428 12.8809 13.3428 13.1413 13.0828C13.4016 12.8222 13.4016 12.3849 13.1413 12.1242L8.95375 7.93685L13.1413 3.74951C13.4016 3.48884 13.4016 3.05152 13.1413 2.79085C13.0111 2.66085 12.8326 2.60352 12.6621 2.60352C12.4915 2.60352 12.3131 2.66085 12.1829 2.79085L7.99541 6.97818L3.80795 2.79085C3.67775 2.66085 3.49935 2.60352 3.32875 2.60352Z" />
    </symbol>
    <symbol id="caret-down" viewBox="0 0 16 16" fill="currentcolor">
      <path id="Vector" fill-rule="evenodd" clip-rule="evenodd"
        d="M4.28221 5.22951C3.98888 4.9235 3.51331 4.9235 3.21999 5.22951C2.92667 5.53552 2.92667 6.03168 3.21999 6.33769L7.46885 10.7704C7.47802 10.78 7.48736 10.7892 7.49688 10.7982C7.50402 10.8049 7.51125 10.8115 7.51858 10.8179C7.81368 11.0756 8.25385 11.0598 8.53115 10.7705L12.78 6.33777C13.0733 6.03175 13.0733 5.5356 12.78 5.22958C12.4867 4.92357 12.0111 4.92357 11.7178 5.22958L8.00004 9.10822L4.28221 5.22951Z" />
    </symbol>
    <symbol id="base-arrow-right" viewBox="0 0 24 24" fill="currentcolor">
      <path
        d="M7.84427 17.5767C7.38524 18.0167 7.38524 18.73 7.84427 19.17C8.30329 19.61 9.04752 19.61 9.50653 19.17L16.1556 12.7967C16.17 12.783 16.1839 12.769 16.1973 12.7547C16.2074 12.744 16.2173 12.7331 16.2269 12.7221C16.6134 12.2795 16.5897 11.6192 16.1557 11.2033L9.50665 4.82997C9.04762 4.39001 8.3034 4.39001 7.84438 4.82997C7.38535 5.26992 7.38535 5.98332 7.84438 6.42328L13.6623 11.9999L7.84427 17.5767Z" />
    </symbol>
    <symbol id="base-arrow-left" viewBox="0 0 24 24" fill="currentcolor">
      <path
        d="M16.1557 6.42331C16.6148 5.98332 16.6148 5.26997 16.1557 4.82999C15.6967 4.39 14.9525 4.39 14.4935 4.82999L7.84438 11.2033C7.83003 11.217 7.81614 11.231 7.80268 11.2453C7.79259 11.256 7.78275 11.2669 7.77314 11.2779C7.38661 11.7205 7.41032 12.3808 7.84427 12.7967L14.4933 19.17C14.9524 19.61 15.6966 19.61 16.1556 19.17C16.6146 18.7301 16.6146 18.0167 16.1556 17.5767L10.3377 12.0001L16.1557 6.42331Z" />
    </symbol>
    <symbol id="calendar" viewBox="0 0 24 24" fill="currentcolor">
      <path
        d="M8.00586 2.01367C7.45356 2.01367 7.00586 2.46167 7.00586 3.01367C4.79676 3.01367 3.00576 4.80467 3.00586 7.01367V8.07568L21.0059 8.01367V7.01367C21.0059 4.80467 19.215 3.01367 17.0059 3.01367C17.0059 2.46167 16.5582 2.01367 16.0059 2.01367C15.4536 2.01367 15.0059 2.46167 15.0059 3.01367H9.00586C9.00586 2.46167 8.55816 2.01367 8.00586 2.01367ZM3.00586 10.0137V17.0137C3.00586 19.2227 4.79676 21.0137 7.00586 21.0137H17.0059C19.215 21.0137 21.006 19.2227 21.0059 17.0137V10.0137H3.00586ZM8.00586 12.0137C8.55816 12.0137 9.00586 12.4617 9.00586 13.0137C9.00586 13.5657 8.55816 14.0137 8.00586 14.0137C7.45356 14.0137 7.00586 13.5657 7.00586 13.0137C7.00586 12.4617 7.45356 12.0137 8.00586 12.0137ZM12.0059 12.0137C12.5582 12.0137 13.0059 12.4617 13.0059 13.0137C13.0059 13.5657 12.5582 14.0137 12.0059 14.0137C11.4536 14.0137 11.0059 13.5657 11.0059 13.0137C11.0059 12.4617 11.4536 12.0137 12.0059 12.0137ZM16.0059 12.0137C16.5582 12.0137 17.0059 12.4617 17.0059 13.0137C17.0059 13.5657 16.5582 14.0137 16.0059 14.0137C15.4536 14.0137 15.0059 13.5657 15.0059 13.0137C15.0059 12.4617 15.4536 12.0137 16.0059 12.0137ZM8.00586 15.0137C8.55816 15.0137 9.00586 15.4617 9.00586 16.0137C9.00586 16.5657 8.55816 17.0137 8.00586 17.0137C7.45356 17.0137 7.00586 16.5657 7.00586 16.0137C7.00586 15.4617 7.45356 15.0137 8.00586 15.0137ZM12.0059 15.0137C12.5582 15.0137 13.0059 15.4617 13.0059 16.0137C13.0059 16.5657 12.5582 17.0137 12.0059 17.0137C11.4536 17.0137 11.0059 16.5657 11.0059 16.0137C11.0059 15.4617 11.4536 15.0137 12.0059 15.0137ZM16.0059 15.0137C16.5582 15.0137 17.0059 15.4617 17.0059 16.0137C17.0059 16.5657 16.5582 17.0137 16.0059 17.0137C15.4536 17.0137 15.0059 16.5657 15.0059 16.0137C15.0059 15.4617 15.4536 15.0137 16.0059 15.0137Z" />
    </symbol>
    <symbol id="arrow-filled-right" viewBox="0 0 9 12" fill="currentcolor">
      <path
        d="M8.31744 6.36794C8.56085 6.17515 8.56085 5.82482 8.31744 5.63203L1.3527 0.115704C1.01647 -0.150574 0.499999 0.072258 0.499999 0.483647L0.5 11.5163C0.5 11.9277 1.01647 12.1506 1.3527 11.8843L8.31744 6.36794Z" />
    </symbol>
    <symbol id="save" viewBox="0 0 16 16" fill="currentcolor">
      <path
        d="M2 4.66667C2 3.194 3.194 2 4.66667 2H8.08333C7.64666 2.564 7.33333 3.23133 7.33333 4V8.66667H5.33333L8 11.3333L10.6667 8.66667H8.66666V4C8.66666 2.89533 9.562 2 10.6667 2H11.3333C12.806 2 14 3.194 14 4.66667V11.3333C14 12.806 12.806 14 11.3333 14H4.66667C3.194 14 2 12.806 2 11.3333V4.66667Z" />
    </symbol>
    <symbol id="collapse" viewBox="0 0 16 16" fill="currentcolor">
      <path
        d="M13.3351 1.99414C13.1645 1.99414 12.9858 2.05148 12.8558 2.18148L10.1891 4.84814L8.66847 3.32747V7.32747H12.6685L11.1478 5.8068L13.8145 3.14014C14.0745 2.87947 14.0745 2.44214 13.8145 2.18148C13.6845 2.05148 13.5058 1.99414 13.3351 1.99414ZM3.33514 8.66081L4.85581 10.1815L2.18914 12.8481C1.92914 13.1088 1.92914 13.5461 2.18914 13.8068C2.31914 13.9368 2.4978 13.9941 2.66847 13.9941C2.83914 13.9941 3.0178 13.9368 3.1478 13.8068L5.81446 11.1401L7.33513 12.6608V8.66081H3.33514Z" />
    </symbol>
    <symbol id="redo-arrow" viewBox="0 0 21 17" fill="currentcolor">
      <path
        d="M10.9863 4.90607C10.6036 4.90607 8.3471 4.87807 7.9863 4.90607C2.04289 5.36307 0.986294 9.90607 0.986294 14.9061V15.9061C2.85309 13.9911 3.9863 12.9061 7.9863 12.9061C8.7319 12.9061 10.0809 12.9061 10.9863 12.9061L11.0166 15.4801C11.0166 16.9001 11.8933 17.3321 12.9747 16.4451L20.1554 10.5521C21.2633 9.64306 21.2633 8.16907 20.1554 7.26007L12.9747 1.36707C11.8933 0.480072 11.0166 0.912068 11.0166 2.33207L10.9863 4.90607Z" />
    </symbol>
    <symbol id="check-circle-fill" viewBox="0 0 24 24" fill="currentcolor">
      <path
        d="M12 3C7.0293 3 3 7.0293 3 12C3 16.9707 7.0293 21 12 21C16.9707 21 21 16.9707 21 12C21 7.0293 16.9707 3 12 3ZM15.6 9.3C15.8304 9.3 16.0707 9.37741 16.2471 9.55291C16.5981 9.90481 16.5981 10.4952 16.2471 10.8471L12.8721 14.1942C11.8362 15.2292 10.2531 15.0744 9.4404 13.8558L8.54041 12.5058C8.26501 12.0927 8.38019 11.5167 8.79419 11.2404C9.20729 10.965 9.78329 11.0802 10.0596 11.4942L10.9596 12.8442C11.1414 13.1169 11.3745 13.1601 11.6058 12.9279L14.9529 9.55291C15.1293 9.37741 15.3696 9.3 15.6 9.3Z" />
    </symbol>
    <symbol id="clock-fill" viewBox="0 0 24 24" fill="currentcolor">
      <path
        d="M12 3C7.02948 3 3 7.0293 3 12C3 16.9707 7.02948 21 12 21C16.9705 21 21 16.9707 21 12C21 7.0293 16.9705 3 12 3ZM12 6.6C12.4971 6.6 12.9 7.0032 12.9 7.5V11.6058L15.3469 14.0529C15.6984 14.4048 15.6984 14.9952 15.3469 15.3471C14.9954 15.6981 14.4046 15.6981 14.0531 15.3471L11.3531 12.6471C11.1843 12.4779 11.1 12.2385 11.1 12V7.5C11.1 7.0032 11.5029 6.6 12 6.6Z" />
    </symbol>
    <symbol id="trash-fill" viewBox="0 0 24 24" fill="currentcolor">
      <path
        d="M11.9981 4.46484C11.1693 4.46484 10.4981 5.13609 10.4981 5.96484H6.74805C6.33405 5.96484 5.99805 6.30084 5.99805 6.71484C5.99805 7.12884 6.33405 7.46483 6.74805 7.46483H17.2481C17.6621 7.46483 17.9981 7.12884 17.9981 6.71484C17.9981 6.30084 17.6621 5.96484 17.2481 5.96484H13.4981C13.4981 5.13609 12.8268 4.46484 11.9981 4.46484ZM6.74805 8.96483V16.4648C6.74805 18.1073 8.1018 19.4415 9.74805 19.4415L14.2713 19.4648C15.9176 19.4648 17.2481 18.1111 17.2481 16.4648V8.96483H6.74805ZM10.4981 11.2148C10.9121 11.2148 11.2481 11.5508 11.2481 11.9648V16.4648C11.2481 16.8788 10.9121 17.2148 10.4981 17.2148C10.0841 17.2148 9.74805 16.8788 9.74805 16.4648V11.9648C9.74805 11.5508 10.0841 11.2148 10.4981 11.2148ZM13.4981 11.2148C13.9121 11.2148 14.2481 11.5508 14.2481 11.9648V16.4648C14.2481 16.8788 13.9121 17.2148 13.4981 17.2148C13.0841 17.2148 12.7481 16.8788 12.7481 16.4648V11.9648C12.7481 11.5508 13.0841 11.2148 13.4981 11.2148Z" />
    </symbol>
    <symbol id="warning-fill" viewBox="0 0 24 24" fill="currentcolor">
      <path
        d="M12 3C7.0293 3 3 7.0293 3 12C3 16.9707 7.0293 21 12 21C16.9707 21 21 16.9707 21 12C21 7.0293 16.9707 3 12 3ZM12 7.5C12.4968 7.5 12.9 7.9032 12.9 8.4V12.9C12.9 13.3968 12.4968 13.8 12 13.8C11.5032 13.8 11.1 13.3968 11.1 12.9V8.4C11.1 7.9032 11.5032 7.5 12 7.5ZM12 14.7C12.4968 14.7 12.9 15.1032 12.9 15.6C12.9 16.0968 12.4968 16.5 12 16.5C11.5032 16.5 11.1 16.0968 11.1 15.6C11.1 15.1032 11.5032 14.7 12 14.7Z" />
    </symbol>
    <symbol id="connect" viewBox="0 0 242 62" fill="currentcolor">
      <path
        d="M29.2499 16.0724C29.526 16.0724 29.7499 15.8485 29.7499 15.5724L29.75 9.45358C23.9969 9.69217 18.8261 12.1837 15.0961 16.0727L29.2499 16.0724ZM21.6271 24.9167C21.6271 25.1928 21.4033 25.4167 21.1271 25.4167L9.82394 25.4172C10.5639 22.6511 11.8401 20.1033 13.5324 17.8936L21.1272 17.8933C21.4034 17.8933 21.6272 18.1171 21.6272 18.3933L21.6271 24.9167ZM46.2267 45.9287C42.4981 49.8163 37.3274 52.3078 31.5728 52.5478L31.5729 46.4291C31.5729 46.1529 31.7968 45.9291 32.0729 45.9291L46.2267 45.9287ZM29.7504 52.5464C23.9973 52.3081 18.8252 49.8154 15.0968 45.928L29.2506 45.9277C29.5267 45.9277 29.7506 46.1516 29.7506 46.4277L29.7504 52.5464ZM24.1289 37.082C24.1289 36.8059 24.3527 36.582 24.6289 36.582L51.4988 36.5814C50.7589 39.3474 49.4842 41.8938 47.7904 44.1049L24.6287 44.1055C24.3526 44.1055 24.1287 43.8816 24.1287 43.6054L24.1289 37.082ZM41.5947 27.7247C41.6015 27.4536 41.8233 27.2373 42.0945 27.2373L51.9037 27.2371C52.119 28.4582 52.2317 29.7155 52.2317 30.9988C52.2316 32.282 52.1189 33.5393 51.9035 34.7605L42.0971 34.7593C41.8253 34.7593 41.6033 34.5422 41.5973 34.2705L41.5187 30.7523L41.5947 27.7247ZM22.5908 43.607C22.5908 43.8831 22.3669 44.107 22.0908 44.107L13.5332 44.1071C11.8396 41.8961 10.565 39.3498 9.82514 36.5838L22.0909 36.5835C22.3671 36.5835 22.591 36.8074 22.5909 37.0835L22.5908 43.607ZM9.42216 27.2381L39.2487 27.2373C39.5249 27.2373 39.7487 27.4612 39.7487 27.7374L39.7486 34.2608C39.7486 34.5369 39.5247 34.7608 39.2486 34.7608L9.42197 34.7615C9.20667 33.5404 9.094 32.2831 9.09403 30.9998C9.09406 29.7165 9.2068 28.4592 9.42216 27.2381ZM23.451 18.3932C23.451 18.1171 23.6749 17.8932 23.951 17.8932L47.791 17.8928C49.4847 20.1039 50.7593 22.6502 51.4991 25.4162L23.9509 25.4166C23.6747 25.4167 23.4509 25.1928 23.4509 24.9166L23.451 18.3932ZM31.5738 9.45357C37.3269 9.69188 42.499 12.1846 46.2274 16.072L32.0737 16.0723C31.7975 16.0723 31.5736 15.8484 31.5736 15.5723L31.5738 9.45357Z" />
      <path
        d="M66.6074 31.1806C66.6074 28.1869 67.2536 25.5242 68.5459 23.1925C69.8382 20.8321 71.6331 19.0042 73.9306 17.7089C76.2568 16.3847 78.8845 15.7227 81.8138 15.7227C85.4036 15.7227 88.4765 16.6726 91.0324 18.5724C93.5884 20.4723 95.2971 23.063 96.1587 26.3446H88.0601C87.457 25.078 86.5954 24.1137 85.4754 23.4516C84.3841 22.7895 83.1349 22.4585 81.7277 22.4585C79.4589 22.4585 77.6209 23.2501 76.2137 24.8333C74.8065 26.4165 74.1029 28.5323 74.1029 31.1806C74.1029 33.8289 74.8065 35.9446 76.2137 37.5278C77.6209 39.111 79.4589 39.9027 81.7277 39.9027C83.1349 39.9027 84.3841 39.5716 85.4754 38.9095C86.5954 38.2475 87.457 37.2832 88.0601 36.0166H96.1587C95.2971 39.2982 93.5884 41.8889 91.0324 43.7887C88.4765 45.6598 85.4036 46.5953 81.8138 46.5953C78.8845 46.5953 76.2568 45.9477 73.9306 44.6523C71.6331 43.3282 69.8382 41.5003 68.5459 39.1686C67.2536 36.837 66.6074 34.1743 66.6074 31.1806Z" />
      <path
        d="M109.888 46.7249C107.533 46.7249 105.408 46.2211 103.513 45.2136C101.646 44.2061 100.167 42.7668 99.0758 40.8958C98.0132 39.0247 97.4819 36.837 97.4819 34.3326C97.4819 31.857 98.0276 29.6837 99.1189 27.8127C100.21 25.9128 101.704 24.4591 103.599 23.4516C105.494 22.4441 107.62 21.9404 109.974 21.9404C112.329 21.9404 114.455 22.4441 116.35 23.4516C118.245 24.4591 119.739 25.9128 120.83 27.8127C121.921 29.6837 122.467 31.857 122.467 34.3326C122.467 36.8082 121.907 38.9959 120.787 40.8958C119.696 42.7668 118.188 44.2061 116.264 45.2136C114.368 46.2211 112.243 46.7249 109.888 46.7249ZM109.888 40.3344C111.295 40.3344 112.487 39.8163 113.464 38.78C114.469 37.7437 114.971 36.2613 114.971 34.3326C114.971 32.404 114.483 30.9215 113.507 29.8852C112.559 28.8489 111.382 28.3308 109.974 28.3308C108.539 28.3308 107.347 28.8489 106.399 29.8852C105.451 30.8927 104.977 32.3752 104.977 34.3326C104.977 36.2613 105.437 37.7437 106.356 38.78C107.304 39.8163 108.481 40.3344 109.888 40.3344Z" />
      <path
        d="M139.298 22.0267C142.113 22.0267 144.353 22.9479 146.018 24.7902C147.713 26.6037 148.56 29.108 148.56 32.3032V46.3794H141.237V33.2963C141.237 31.6843 140.82 30.4322 139.987 29.5398C139.155 28.6474 138.035 28.2013 136.627 28.2013C135.22 28.2013 134.1 28.6474 133.267 29.5398C132.434 30.4322 132.018 31.6843 132.018 33.2963V46.3794H124.652V22.2858H132.018V25.481C132.765 24.4159 133.77 23.5812 135.033 22.9767C136.297 22.3434 137.719 22.0267 139.298 22.0267Z" />
      <path
        d="M166.602 22.0267C169.416 22.0267 171.656 22.9479 173.322 24.7902C175.016 26.6037 175.864 29.108 175.864 32.3032V46.3794H168.54V33.2963C168.54 31.6843 168.124 30.4322 167.291 29.5398C166.458 28.6474 165.338 28.2013 163.931 28.2013C162.524 28.2013 161.404 28.6474 160.571 29.5398C159.738 30.4322 159.322 31.6843 159.322 33.2963V46.3794H151.956V22.2858H159.322V25.481C160.069 24.4159 161.074 23.5812 162.337 22.9767C163.601 22.3434 165.022 22.0267 166.602 22.0267Z" />
      <path
        d="M201.918 33.944C201.918 34.6349 201.875 35.3545 201.789 36.1029H185.118C185.233 37.5998 185.707 38.7512 186.539 39.5572C187.401 40.3344 188.449 40.723 189.684 40.723C191.522 40.723 192.8 39.9458 193.518 38.3914H201.358C200.956 39.9746 200.224 41.3995 199.161 42.6661C198.127 43.9327 196.821 44.9258 195.241 45.6454C193.662 46.365 191.895 46.7249 189.943 46.7249C187.588 46.7249 185.491 46.2211 183.653 45.2136C181.815 44.2061 180.379 42.7668 179.346 40.8958C178.312 39.0247 177.795 36.837 177.795 34.3326C177.795 31.8283 178.297 29.6405 179.302 27.7695C180.336 25.8984 181.772 24.4591 183.61 23.4516C185.448 22.4441 187.559 21.9404 189.943 21.9404C192.269 21.9404 194.337 22.4297 196.146 23.4084C197.955 24.3872 199.362 25.7833 200.367 27.5968C201.401 29.4103 201.918 31.526 201.918 33.944ZM194.38 32.001C194.38 30.7344 193.949 29.7269 193.087 28.9785C192.226 28.23 191.149 27.8558 189.856 27.8558C188.622 27.8558 187.573 28.2157 186.712 28.9353C185.879 29.6549 185.362 30.6768 185.161 32.001H194.38Z" />
      <path
        d="M202.617 34.3326C202.617 31.8283 203.119 29.6405 204.124 27.7695C205.158 25.8984 206.58 24.4591 208.389 23.4516C210.227 22.4441 212.323 21.9404 214.678 21.9404C217.694 21.9404 220.207 22.732 222.217 24.3152C224.256 25.8984 225.591 28.1293 226.223 31.0079H218.383C217.722 29.1656 216.444 28.2444 214.549 28.2444C213.199 28.2444 212.122 28.777 211.318 29.842C210.514 30.8783 210.112 32.3752 210.112 34.3326C210.112 36.29 210.514 37.8013 211.318 38.8664C212.122 39.9027 213.199 40.4208 214.549 40.4208C216.444 40.4208 217.722 39.4997 218.383 37.6574H226.223C225.591 40.4784 224.256 42.6949 222.217 44.3069C220.178 45.9189 217.665 46.7249 214.678 46.7249C212.323 46.7249 210.227 46.2211 208.389 45.2136C206.58 44.2061 205.158 42.7668 204.124 40.8958C203.119 39.0247 202.617 36.837 202.617 34.3326Z" />
      <path
        d="M241.837 40.1185V46.3794H238.09C235.419 46.3794 233.337 45.7318 231.843 44.4364C230.35 43.1123 229.603 40.9677 229.603 38.0028V28.4172H226.674V22.2858H229.603V16.4135H236.97V22.2858H241.794V28.4172H236.97V38.0892C236.97 38.8088 237.142 39.3269 237.486 39.6436C237.831 39.9602 238.405 40.1185 239.21 40.1185H241.837Z" />
    </symbol>

    <symbol id="renown" viewBox="0 0 71 19" fill="currentcolor">
      <path
        d="M53.6211 18.4887V9.0342H56.435V10.8096H56.4923C56.7377 10.181 57.1085 9.70244 57.6047 9.37398C58.101 9.03986 58.6981 8.8728 59.3962 8.8728C60.4105 8.8728 61.2039 9.1871 61.7765 9.8157C62.3546 10.4443 62.6436 11.3164 62.6436 12.432V18.4887H59.7397V13.0776C59.7397 12.5283 59.6007 12.1007 59.3225 11.7949C59.0499 11.4835 58.6654 11.3277 58.1692 11.3277C57.6784 11.3277 57.2803 11.4976 56.9749 11.8374C56.6695 12.1772 56.5168 12.6161 56.5168 13.1541V18.4887H53.6211Z" />
      <path
        d="M53.097 9.03394L50.7412 18.4884H47.6164L46.1522 12.075H46.0949L44.6389 18.4884H41.5632L39.1992 9.03394H42.1195L43.3056 15.7532H43.3628L44.7861 9.03394H47.551L48.9906 15.7532H49.0479L50.234 9.03394H53.097Z" />
      <path
        d="M37.8661 17.3926C37.0427 18.2591 35.9084 18.6923 34.4632 18.6923C33.0181 18.6923 31.8838 18.2591 31.0604 17.3926C30.2369 16.5205 29.8252 15.3086 29.8252 13.7569C29.8252 12.2336 30.2424 11.033 31.0767 10.1552C31.9111 9.2718 33.0399 8.83008 34.4632 8.83008C35.892 8.83008 37.0208 9.26896 37.8497 10.1467C38.6841 11.0188 39.1013 12.2222 39.1013 13.7569C39.1013 15.3143 38.6896 16.5262 37.8661 17.3926ZM33.2117 15.7702C33.5116 16.2402 33.9288 16.4752 34.4632 16.4752C34.9977 16.4752 35.4148 16.2402 35.7148 15.7702C36.0147 15.2945 36.1647 14.6234 36.1647 13.7569C36.1647 12.9131 36.012 12.2506 35.7066 11.7692C35.4012 11.2878 34.9868 11.0472 34.4632 11.0472C33.9343 11.0472 33.5171 11.2878 33.2117 11.7692C32.9118 12.2449 32.7618 12.9075 32.7618 13.7569C32.7618 14.6234 32.9118 15.2945 33.2117 15.7702Z" />
      <path
        d="M20.0088 18.4887V9.0342H22.8227V10.8096H22.88C23.1254 10.181 23.4962 9.70244 23.9924 9.37398C24.4887 9.03986 25.0858 8.8728 25.7838 8.8728C26.7982 8.8728 27.5916 9.1871 28.1642 9.8157C28.7423 10.4443 29.0313 11.3164 29.0313 12.432V18.4887H26.1274V13.0776C26.1274 12.5283 25.9883 12.1007 25.7102 11.7949C25.4376 11.4835 25.0531 11.3277 24.5569 11.3277C24.0661 11.3277 23.668 11.4976 23.3626 11.8374C23.0572 12.1772 22.9045 12.6161 22.9045 13.1541V18.4887H20.0088Z" />
      <path
        d="M14.7486 10.9707C14.2851 10.9707 13.8952 11.1321 13.5789 11.4549C13.2626 11.7777 13.0854 12.1911 13.0472 12.6951H16.4337C16.4064 12.1741 16.2374 11.7579 15.9265 11.4464C15.6212 11.1293 15.2285 10.9707 14.7486 10.9707ZM16.4991 15.5153H19.1167C18.9749 16.4837 18.5141 17.2567 17.7343 17.8343C16.9599 18.4063 15.9838 18.6923 14.8059 18.6923C13.3662 18.6923 12.2374 18.2591 11.4194 17.3926C10.6014 16.5262 10.1924 15.3313 10.1924 13.8079C10.1924 12.2845 10.5987 11.0755 11.4112 10.1807C12.2237 9.28029 13.3226 8.83008 14.7077 8.83008C16.0656 8.83008 17.1481 9.26047 17.9552 10.1213C18.7677 10.9764 19.174 12.1231 19.174 13.5616V14.4195H13.0145V14.6064C13.0145 15.184 13.1835 15.6541 13.5216 16.0165C13.8597 16.3733 14.3015 16.5517 14.8468 16.5517C15.2503 16.5517 15.5993 16.461 15.8938 16.2798C16.1883 16.0929 16.3901 15.8381 16.4991 15.5153Z" />
      <path
        d="M3.00205 8.58396V12.0667H4.7771C5.32789 12.0667 5.7587 11.911 6.06954 11.5995C6.38038 11.2881 6.5358 10.8662 6.5358 10.3338C6.5358 9.80718 6.37492 9.38528 6.05318 9.06815C5.73143 8.74535 5.30335 8.58396 4.76892 8.58396H3.00205ZM3.00205 14.1989V18.4886H0V6.23096H5.07158C6.53307 6.23096 7.65373 6.5849 8.43355 7.29278C9.21337 8.00066 9.60328 8.99453 9.60328 10.2744C9.60328 11.0446 9.42605 11.7439 9.07159 12.3725C8.71712 12.9955 8.2236 13.4514 7.59101 13.7402L9.94684 18.4886H6.5767L4.55624 14.1989H3.00205Z" />
      <path
        d="M65.7255 0.211478C65.0841 2.46724 63.3737 4.2455 61.2041 4.90969C60.932 4.99366 60.932 5.39096 61.2041 5.47492C63.3725 6.13912 65.0841 7.91738 65.7255 10.1731C65.8056 10.4551 66.1932 10.4551 66.2745 10.1731C66.9159 7.91738 68.6263 6.13912 70.7959 5.47492C71.068 5.39096 71.068 4.99366 70.7959 4.90969C68.6276 4.2455 66.9159 2.46724 66.2745 0.211478C66.1944 -0.0704925 65.8068 -0.0704925 65.7255 0.211478Z" />
    </symbol>

    <symbol id="renown_hover" viewBox="0 0 71 19" fill="currentcolor">
      <path
        d="M53.6211 18.4887V9.0342H56.435V10.8096H56.4923C56.7377 10.181 57.1085 9.70244 57.6047 9.37398C58.101 9.03986 58.6981 8.8728 59.3962 8.8728C60.4105 8.8728 61.2039 9.1871 61.7765 9.8157C62.3546 10.4443 62.6436 11.3164 62.6436 12.432V18.4887H59.7397V13.0776C59.7397 12.5283 59.6007 12.1007 59.3225 11.7949C59.0499 11.4835 58.6654 11.3277 58.1692 11.3277C57.6784 11.3277 57.2803 11.4976 56.9749 11.8374C56.6695 12.1772 56.5168 12.6161 56.5168 13.1541V18.4887H53.6211Z" />
      <path
        d="M53.097 9.03394L50.7412 18.4884H47.6164L46.1522 12.075H46.0949L44.6389 18.4884H41.5632L39.1992 9.03394H42.1195L43.3056 15.7532H43.3628L44.7861 9.03394H47.551L48.9906 15.7532H49.0479L50.234 9.03394H53.097Z" />
      <path
        d="M37.8661 17.3926C37.0427 18.2591 35.9084 18.6923 34.4632 18.6923C33.0181 18.6923 31.8838 18.2591 31.0604 17.3926C30.2369 16.5205 29.8252 15.3086 29.8252 13.7569C29.8252 12.2336 30.2424 11.033 31.0767 10.1552C31.9111 9.2718 33.0399 8.83008 34.4632 8.83008C35.892 8.83008 37.0208 9.26896 37.8497 10.1467C38.6841 11.0188 39.1013 12.2222 39.1013 13.7569C39.1013 15.3143 38.6896 16.5262 37.8661 17.3926ZM33.2117 15.7702C33.5116 16.2402 33.9288 16.4752 34.4632 16.4752C34.9977 16.4752 35.4148 16.2402 35.7148 15.7702C36.0147 15.2945 36.1647 14.6234 36.1647 13.7569C36.1647 12.9131 36.012 12.2506 35.7066 11.7692C35.4012 11.2878 34.9868 11.0472 34.4632 11.0472C33.9343 11.0472 33.5171 11.2878 33.2117 11.7692C32.9118 12.2449 32.7618 12.9075 32.7618 13.7569C32.7618 14.6234 32.9118 15.2945 33.2117 15.7702Z" />
      <path
        d="M20.0088 18.4887V9.0342H22.8227V10.8096H22.88C23.1254 10.181 23.4962 9.70244 23.9924 9.37398C24.4887 9.03986 25.0858 8.8728 25.7838 8.8728C26.7982 8.8728 27.5916 9.1871 28.1642 9.8157C28.7423 10.4443 29.0313 11.3164 29.0313 12.432V18.4887H26.1274V13.0776C26.1274 12.5283 25.9883 12.1007 25.7102 11.7949C25.4376 11.4835 25.0531 11.3277 24.5569 11.3277C24.0661 11.3277 23.668 11.4976 23.3626 11.8374C23.0572 12.1772 22.9045 12.6161 22.9045 13.1541V18.4887H20.0088Z" />
      <path
        d="M14.7486 10.9707C14.2851 10.9707 13.8952 11.1321 13.5789 11.4549C13.2626 11.7777 13.0854 12.1911 13.0472 12.6951H16.4337C16.4064 12.1741 16.2374 11.7579 15.9265 11.4464C15.6212 11.1293 15.2285 10.9707 14.7486 10.9707ZM16.4991 15.5153H19.1167C18.9749 16.4837 18.5141 17.2567 17.7343 17.8343C16.9599 18.4063 15.9838 18.6923 14.8059 18.6923C13.3662 18.6923 12.2374 18.2591 11.4194 17.3926C10.6014 16.5262 10.1924 15.3313 10.1924 13.8079C10.1924 12.2845 10.5987 11.0755 11.4112 10.1807C12.2237 9.28029 13.3226 8.83008 14.7077 8.83008C16.0656 8.83008 17.1481 9.26047 17.9552 10.1213C18.7677 10.9764 19.174 12.1231 19.174 13.5616V14.4195H13.0145V14.6064C13.0145 15.184 13.1835 15.6541 13.5216 16.0165C13.8597 16.3733 14.3015 16.5517 14.8468 16.5517C15.2503 16.5517 15.5993 16.461 15.8938 16.2798C16.1883 16.0929 16.3901 15.8381 16.4991 15.5153Z" />
      <path
        d="M3.00205 8.58396V12.0667H4.7771C5.32789 12.0667 5.7587 11.911 6.06954 11.5995C6.38038 11.2881 6.5358 10.8662 6.5358 10.3338C6.5358 9.80718 6.37492 9.38528 6.05318 9.06815C5.73143 8.74535 5.30335 8.58396 4.76892 8.58396H3.00205ZM3.00205 14.1989V18.4886H0V6.23096H5.07158C6.53307 6.23096 7.65373 6.5849 8.43355 7.29278C9.21337 8.00066 9.60328 8.99453 9.60328 10.2744C9.60328 11.0446 9.42605 11.7439 9.07159 12.3725C8.71712 12.9955 8.2236 13.4514 7.59101 13.7402L9.94684 18.4886H6.5767L4.55624 14.1989H3.00205Z" />
      <path
        d="M65.7255 0.211478C65.0841 2.46724 63.3737 4.2455 61.2041 4.90969C60.932 4.99366 60.932 5.39096 61.2041 5.47492C63.3725 6.13912 65.0841 7.91738 65.7255 10.1731C65.8056 10.4551 66.1932 10.4551 66.2745 10.1731C66.9159 7.91738 68.6263 6.13912 70.7959 5.47492C71.068 5.39096 71.068 4.99366 70.7959 4.90969C68.6276 4.2455 66.9159 2.46724 66.2745 0.211478C66.1944 -0.0704925 65.8068 -0.0704925 65.7255 0.211478Z"
        fill="#21FFB4" />
    </symbol>
  </defs>
</svg>