<svg width="33" height="32" viewBox="0 0 33 32" fill="none" xmlns="http://www.w3.org/2000/svg">
<path d="M10.998 6.49023C9.24404 6.49123 8.00805 7.71723 7.99805 9.49023V11.4902C7.99905 11.5302 7.99805 20.4902 7.99805 20.4902C7.99805 22.6992 9.78904 24.4902 11.998 24.4902H21.998C24.207 24.4902 25.998 22.6992 25.998 20.4902V14.4902C25.997 14.4052 25.998 12.6482 25.998 12.5212C26.005 10.7802 24.72 9.49723 22.998 9.49023C22.726 9.48923 22.051 9.48923 22.061 9.49023C21.138 9.48723 20.925 9.30324 20.342 8.42824C19.425 7.05324 18.653 6.49023 16.998 6.49023H10.998ZM10.998 8.49023H16.998C17.843 8.49023 18.071 8.67723 18.654 9.55223C19.571 10.9272 20.343 11.4902 21.998 11.4902C21.972 11.4912 22.722 11.4892 22.998 11.4902C23.622 11.4932 24.001 11.8912 23.998 12.5212C23.998 12.5852 23.997 13.0262 23.998 13.4902C23.358 13.4902 23.198 13.4902 19.998 13.4902C19.153 13.4902 18.925 13.3032 18.342 12.4282C17.425 11.0532 16.653 10.4902 14.998 10.4902C14.113 10.4902 11.434 10.4902 9.99804 10.4902V9.49023C10.002 8.82623 10.34 8.49023 10.998 8.49023Z" fill="#6C7275"/>
</svg>
