<svg width="28" height="32" viewBox="0 0 28 32" fill="none" xmlns="http://www.w3.org/2000/svg">
<path fill-rule="evenodd" clip-rule="evenodd" d="M0.05092 23.7286L0.000163347 23.9993L0 23.9995L0.207853 24.067L27.6823 24.067L27.9995 23.9995L27.9161 23.6913L14.2182 0.209032L13.9998 0L13.749 0.246353L0.05092 23.7286ZM20.9994 11.9999L7.0003 11.9999L13.9998 23.999L20.9994 11.9999Z" fill="url(#paint0_radial_319_20865)"/>
<path d="M14 0L0 23.9998V7.99993L14 0Z" fill="url(#paint1_linear_319_20865)"/>
<path d="M28 24L7.82013e-05 24L14 31.9999L28 24Z" fill="url(#paint2_linear_319_20865)"/>
<path d="M14 0L28 23.9998V7.99993L14 0Z" fill="url(#paint3_linear_319_20865)"/>
<defs>
<radialGradient id="paint0_radial_319_20865" cx="0" cy="0" r="1" gradientUnits="userSpaceOnUse" gradientTransform="translate(13.9994 16.0344) rotate(-89.9988) scale(16.0344 16.201)">
<stop offset="0.181008" stop-color="#FFCD6B"/>
<stop offset="1" stop-color="#EB5EDF"/>
</radialGradient>
<linearGradient id="paint1_linear_319_20865" x1="-0.031454" y1="24.041" x2="13.801" y2="-0.142908" gradientUnits="userSpaceOnUse">
<stop stop-color="#4331E9"/>
<stop offset="1" stop-color="#A273FF"/>
</linearGradient>
<linearGradient id="paint2_linear_319_20865" x1="-0.0310093" y1="24" x2="28.0444" y2="24" gradientUnits="userSpaceOnUse">
<stop stop-color="#A273FF"/>
<stop offset="1" stop-color="#4331E9"/>
</linearGradient>
<linearGradient id="paint3_linear_319_20865" x1="28.0315" y1="24.041" x2="14.199" y2="-0.142908" gradientUnits="userSpaceOnUse">
<stop stop-color="#A273FF"/>
<stop offset="1" stop-color="#4331E9"/>
</linearGradient>
</defs>
</svg>
