<svg width="120" height="23" viewBox="0 0 120 23" fill="none" xmlns="http://www.w3.org/2000/svg">
<path fill-rule="evenodd" clip-rule="evenodd" d="M13.7696 0.0175781L4.70141 7.52646C3.37127 8.62788 3.27453 10.6339 4.49252 11.8582L7.6297 15.0116C8.55015 15.9369 8.74931 17.3587 8.1185 18.5012L6.16688 22.0359H2.93578C1.31439 22.0359 0 20.7215 0 19.1001V2.95336C0 1.33197 1.31439 0.0175781 2.93578 0.0175781H13.7696ZM15.4729 0.0175781L13.7791 3.10319C13.1546 4.24085 13.3511 5.65357 14.2625 6.57753L17.5906 9.95154C18.8059 11.1837 18.6971 13.1943 17.356 14.2882L7.85672 22.0359H19.0826C20.704 22.0359 22.0183 20.7215 22.0183 19.1001V2.95336C22.0183 1.33197 20.704 0.0175781 19.0826 0.0175781H15.4729Z" fill="#F3F5F7"/>
<path d="M33.2661 21.8585V19.3996H34.6604C36.8564 19.3996 38.2274 18.2174 38.2274 16.3968C38.2274 14.5762 36.868 13.394 34.6837 13.394H30.8262V21.8585H33.2661ZM33.2661 15.191H34.4048C35.2297 15.191 35.7758 15.6638 35.7758 16.3968C35.7758 17.1298 35.2297 17.6026 34.4048 17.6026H33.2661V15.191Z" fill="#F3F5F7"/>
<path d="M43.2334 22.0359C46.0103 22.0359 47.8926 20.3217 47.8926 17.6263C47.8926 14.9309 46.0103 13.2285 43.2334 13.2285C40.4448 13.2285 38.5626 14.9309 38.5626 17.6263C38.5626 20.3217 40.4448 22.0359 43.2334 22.0359ZM43.2334 19.9907C41.9204 19.9907 41.0142 19.0567 41.0142 17.6263C41.0142 16.2076 41.9204 15.2619 43.2334 15.2619C44.5463 15.2619 45.441 16.2076 45.441 17.6263C45.441 19.0567 44.5463 19.9907 43.2334 19.9907Z" fill="#F3F5F7"/>
<path d="M53.4943 21.8585L54.6562 16.7278H54.7724L55.9343 21.8585H59.3503L61.5927 13.394H59.1411L57.5958 19.6005H57.4796L55.9343 13.394H53.4943L51.9606 19.6005H51.8444L50.2875 13.394H47.8359L50.0784 21.8585H53.4943Z" fill="#F3F5F7"/>
<path d="M68.7579 21.8585V19.8961H64.6099V18.3947H67.6947V16.7751H64.6099V15.3565H68.6417V13.394H62.2396V21.8585H68.7579Z" fill="#F3F5F7"/>
<path d="M71.9817 21.8585V19.0686H72.5742L74.6424 21.8585H77.3728L74.9212 18.8794L75.0142 18.8558C76.2226 18.6311 77.1056 17.6617 77.1056 16.2786C77.1056 14.5526 75.7578 13.394 73.7245 13.394H69.5301V21.8585H71.9817ZM71.9817 15.191H73.2946C74.0731 15.191 74.654 15.6165 74.654 16.314C74.654 17.0234 74.0731 17.4489 73.2946 17.4489H71.9817V15.191Z" fill="#F3F5F7"/>
<path d="M80.3727 21.8585V18.4656H83.2193V21.8585H85.6709V13.394H83.2193V16.515H80.3727V13.394H77.9211V21.8585H80.3727Z" fill="#F3F5F7"/>
<path d="M91.1115 22.0359C93.8884 22.0359 95.7707 20.3217 95.7707 17.6263C95.7707 14.9309 93.8884 13.2285 91.1115 13.2285C88.323 13.2285 86.4407 14.9309 86.4407 17.6263C86.4407 20.3217 88.323 22.0359 91.1115 22.0359ZM91.1115 19.9907C89.7986 19.9907 88.8923 19.0567 88.8923 17.6263C88.8923 16.2076 89.7986 15.2619 91.1115 15.2619C92.4244 15.2619 93.3191 16.2076 93.3191 17.6263C93.3191 19.0567 92.4244 19.9907 91.1115 19.9907Z" fill="#F3F5F7"/>
<path d="M100.399 22.0359C102.722 22.0359 104.303 20.6172 104.303 18.3829V13.394H101.851V18.3001C101.851 19.3168 101.27 19.9907 100.399 19.9907C99.5155 19.9907 98.9462 19.3286 98.9462 18.3001V13.394L96.4946 14.8619V18.3829C96.4946 20.6172 98.0748 22.0359 100.399 22.0359Z" fill="#F3F5F7"/>
<path d="M108.838 22.0359C111.162 22.0359 112.684 20.9482 112.684 19.2695C112.684 17.2243 110.767 16.917 109.349 16.7042C108.385 16.5623 107.56 16.4559 107.56 15.8175C107.56 15.3446 108.025 15.0136 108.803 15.0136C109.64 15.0136 110.186 15.4392 110.186 16.184H112.405C112.405 14.4344 110.93 13.2285 108.722 13.2285C106.526 13.2285 105.108 14.3161 105.108 15.9948C105.108 18.1701 107.27 18.3474 108.699 18.5484C109.547 18.6666 110.232 18.8085 110.232 19.4232C110.232 19.9434 109.721 20.2389 108.931 20.2389C107.932 20.2389 107.363 19.7779 107.351 19.0686H105.05C105.05 20.8182 106.561 22.0359 108.838 22.0359Z" fill="#F3F5F7"/>
<path d="M120 21.8585V19.8961H115.853V18.3947H118.937V16.7751H115.853V15.3565H119.884V13.394H113.482V21.8585H120Z" fill="#F3F5F7"/>
<path d="M30.8262 8.68109V0.0175781H34.0569C34.6829 0.0175781 35.2012 0.119104 35.6119 0.322155C36.0226 0.522386 36.3298 0.79453 36.5337 1.13859C36.7376 1.47983 36.8396 1.86478 36.8396 2.29344C36.8396 2.65442 36.7721 2.959 36.6371 3.20717C36.5021 3.45253 36.3212 3.64994 36.0943 3.7994C35.8704 3.94605 35.6234 4.05322 35.3534 4.1209V4.20551C35.6464 4.21961 35.9321 4.31267 36.2107 4.4847C36.4921 4.65391 36.7247 4.89503 36.9085 5.20807C37.0923 5.52111 37.1842 5.90183 37.1842 6.35023C37.1842 6.793 37.0779 7.19064 36.8654 7.54316C36.6558 7.89286 36.3313 8.17064 35.8919 8.37651C35.4525 8.57956 34.8911 8.68109 34.2076 8.68109H30.8262ZM32.1572 7.56008H34.0784C34.7159 7.56008 35.1725 7.43881 35.4482 7.19628C35.7239 6.95375 35.8617 6.65058 35.8617 6.28678C35.8617 6.01322 35.7914 5.76223 35.6507 5.5338C35.51 5.30537 35.3089 5.12347 35.0476 4.9881C34.7891 4.85273 34.4819 4.78505 34.1258 4.78505H32.1572V7.56008ZM32.1572 3.76556H33.9406C34.2392 3.76556 34.5077 3.70916 34.7461 3.59635C34.9873 3.48355 35.1783 3.32562 35.319 3.12257C35.4626 2.9167 35.5344 2.67416 35.5344 2.39497C35.5344 2.03681 35.4066 1.73646 35.151 1.49393C34.8954 1.2514 34.5034 1.13013 33.975 1.13013H32.1572V3.76556Z" fill="#F3F5F7"/>
<path d="M44.436 0.0175781H45.7713V5.7157C45.7713 6.32203 45.6263 6.85927 45.3363 7.32742C45.0462 7.79274 44.6384 8.15936 44.1129 8.42728C43.5874 8.69237 42.9714 8.82492 42.265 8.82492C41.5614 8.82492 40.9468 8.69237 40.4213 8.42728C39.8958 8.15936 39.488 7.79274 39.198 7.32742C38.9079 6.85927 38.7629 6.32203 38.7629 5.7157V0.0175781H40.0939V5.60994C40.0939 6.00194 40.1815 6.35023 40.3567 6.65481C40.5348 6.95939 40.786 7.1991 41.1105 7.37395C41.435 7.54598 41.8198 7.63199 42.265 7.63199C42.713 7.63199 43.0992 7.54598 43.4237 7.37395C43.7511 7.1991 44.0009 6.95939 44.1732 6.65481C44.3484 6.35023 44.436 6.00194 44.436 5.60994V0.0175781Z" fill="#F3F5F7"/>
<path d="M49.0376 0.0175781V8.68109H47.7065V0.0175781H49.0376Z" fill="#F3F5F7"/>
<path d="M50.976 8.68109V0.0175781H52.307V7.55585H56.3045V8.68109H50.976Z" fill="#F3F5F7"/>
<path d="M60.6788 8.68109H57.8229V0.0175781H60.7693C61.6337 0.0175781 62.376 0.191018 62.9963 0.537897C63.6166 0.881955 64.0919 1.37689 64.4221 2.02271C64.7552 2.6657 64.9218 3.43701 64.9218 4.33664C64.9218 5.23909 64.7538 6.01463 64.4178 6.66327C64.0847 7.31191 63.6022 7.81107 62.9704 8.16077C62.3387 8.50765 61.5748 8.68109 60.6788 8.68109ZM59.1539 7.53893H60.6056C61.2776 7.53893 61.8361 7.41484 62.2812 7.16667C62.7263 6.91567 63.0595 6.55328 63.2806 6.0795C63.5017 5.60289 63.6123 5.02194 63.6123 4.33664C63.6123 3.65699 63.5017 3.08026 63.2806 2.60648C63.0623 2.13269 62.7364 1.77312 62.3028 1.52777C61.8691 1.28242 61.3307 1.15974 60.6874 1.15974H59.1539V7.53893Z" fill="#F3F5F7"/>
<path d="M69.7872 8.68109V0.0175781H73.0179C73.6439 0.0175781 74.1623 0.119104 74.5729 0.322155C74.9836 0.522386 75.2909 0.79453 75.4947 1.13859C75.6986 1.47983 75.8006 1.86478 75.8006 2.29344C75.8006 2.65442 75.7331 2.959 75.5981 3.20717C75.4632 3.45253 75.2822 3.64994 75.0554 3.7994C74.8314 3.94605 74.5844 4.05322 74.3145 4.1209V4.20551C74.6074 4.21961 74.8931 4.31267 75.1717 4.4847C75.4531 4.65391 75.6857 4.89503 75.8695 5.20807C76.0533 5.52111 76.1452 5.90183 76.1452 6.35023C76.1452 6.793 76.0389 7.19064 75.8264 7.54316C75.6168 7.89286 75.2923 8.17064 74.8529 8.37651C74.4135 8.57956 73.8521 8.68109 73.1686 8.68109H69.7872ZM71.1182 7.56008H73.0394C73.6769 7.56008 74.1335 7.43881 74.4092 7.19628C74.6849 6.95375 74.8228 6.65058 74.8228 6.28678C74.8228 6.01322 74.7524 5.76223 74.6117 5.5338C74.471 5.30537 74.27 5.12347 74.0086 4.9881C73.7502 4.85273 73.4429 4.78505 73.0868 4.78505H71.1182V7.56008ZM71.1182 3.76556H72.9016C73.2002 3.76556 73.4687 3.70916 73.7071 3.59635C73.9483 3.48355 74.1393 3.32562 74.28 3.12257C74.4236 2.9167 74.4954 2.67416 74.4954 2.39497C74.4954 2.03681 74.3676 1.73646 74.112 1.49393C73.8564 1.2514 73.4644 1.13013 72.936 1.13013H71.1182V3.76556Z" fill="#F3F5F7"/>
<path d="M77.0433 0.0175781H78.5553L80.8598 3.95592H80.9546L83.2592 0.0175781H84.7711L81.5706 5.27998V8.68109H80.2439V5.27998L77.0433 0.0175781Z" fill="#F3F5F7"/>
</svg>
