<svg width="107" height="20" viewBox="0 0 107 20" fill="currentColor" xmlns="http://www.w3.org/2000/svg">
    <path
        d="M0.666504 10.1087C0.666504 8.30419 1.056 6.69918 1.83499 5.29371C2.61398 3.8709 3.6959 2.76908 5.08077 1.98827C6.48295 1.1901 8.0669 0.791016 9.83261 0.791016C11.9965 0.791016 13.8487 1.36361 15.3894 2.50881C16.9301 3.654 17.9601 5.21563 18.4794 7.1937H13.5977C13.2342 6.43023 12.7149 5.84896 12.0397 5.44988C11.3819 5.05079 10.6289 4.85125 9.78067 4.85125C8.41311 4.85125 7.30522 5.32842 6.45699 6.28275C5.60876 7.23708 5.18464 8.51241 5.18464 10.1087C5.18464 11.7051 5.60876 12.9804 6.45699 13.9347C7.30522 14.8891 8.41311 15.3662 9.78067 15.3662C10.6289 15.3662 11.3819 15.1667 12.0397 14.7676C12.7149 14.3685 13.2342 13.7872 13.5977 13.0238H18.4794C17.9601 15.0018 16.9301 16.5635 15.3894 17.7087C13.8487 18.8365 11.9965 19.4004 9.83261 19.4004C8.0669 19.4004 6.48295 19.01 5.08077 18.2292C3.6959 17.431 2.61398 16.3292 1.83499 14.9238C1.056 13.5183 0.666504 11.9133 0.666504 10.1087Z" />
    <path
        d="M26.7553 19.4785C25.3358 19.4785 24.0548 19.1749 22.9123 18.5676C21.7871 17.9603 20.8956 17.0927 20.2378 15.9648C19.5973 14.837 19.277 13.5183 19.277 12.0087C19.277 10.5165 19.6059 9.20646 20.2638 8.07862C20.9216 6.93343 21.8217 6.05718 22.9642 5.44988C24.1068 4.84258 25.3878 4.53893 26.8073 4.53893C28.2267 4.53893 29.5078 4.84258 30.6503 5.44988C31.7928 6.05718 32.693 6.93343 33.3508 8.07862C34.0086 9.20646 34.3375 10.5165 34.3375 12.0087C34.3375 13.5009 33.9999 14.8197 33.3248 15.9648C32.667 17.0927 31.7582 17.9603 30.5983 18.5676C29.4558 19.1749 28.1748 19.4785 26.7553 19.4785ZM26.7553 15.6265C27.6036 15.6265 28.322 15.3142 28.9105 14.6895C29.5164 14.0649 29.8193 13.1713 29.8193 12.0087C29.8193 10.8462 29.5251 9.95257 28.9365 9.32792C28.3652 8.70327 27.6555 8.39095 26.8073 8.39095C25.9417 8.39095 25.2233 8.70327 24.6521 9.32792C24.0808 9.93522 23.7952 10.8288 23.7952 12.0087C23.7952 13.1713 24.0721 14.0649 24.6261 14.6895C25.1973 15.3142 25.9071 15.6265 26.7553 15.6265Z" />
    <path
        d="M44.483 4.59098C46.1795 4.59098 47.5297 5.14623 48.5337 6.25672C49.5551 7.34986 50.0658 8.85944 50.0658 10.7854V19.2703H45.6515V11.3841C45.6515 10.4124 45.4005 9.6576 44.8985 9.11971C44.3964 8.58181 43.7213 8.31286 42.8731 8.31286C42.0249 8.31286 41.3497 8.58181 40.8477 9.11971C40.3457 9.6576 40.0947 10.4124 40.0947 11.3841V19.2703H35.6545V4.74714H40.0947V6.67315C40.5448 6.03115 41.1507 5.52796 41.9123 5.16358C42.674 4.78185 43.5309 4.59098 44.483 4.59098Z" />
    <path
        d="M60.9412 4.59098C62.6376 4.59098 63.9879 5.14623 64.9919 6.25672C66.0133 7.34986 66.5239 8.85944 66.5239 10.7854V19.2703H62.1096V11.3841C62.1096 10.4124 61.8586 9.6576 61.3566 9.11971C60.8546 8.58181 60.1795 8.31286 59.3313 8.31286C58.483 8.31286 57.8079 8.58181 57.3059 9.11971C56.8039 9.6576 56.5529 10.4124 56.5529 11.3841V19.2703H52.1126V4.74714H56.5529V6.67315C57.0029 6.03115 57.6088 5.52796 58.3705 5.16358C59.1322 4.78185 59.9891 4.59098 60.9412 4.59098Z" />
    <path
        d="M82.2291 11.7745C82.2291 12.1909 82.2031 12.6247 82.1512 13.0758H72.1022C72.1715 13.9781 72.4571 14.6722 72.9591 15.158C73.4784 15.6265 74.1103 15.8607 74.8546 15.8607C75.9625 15.8607 76.7329 15.3923 77.1656 14.4553H81.8915C81.6491 15.4096 81.2077 16.2685 80.5672 17.032C79.944 17.7954 79.1564 18.3941 78.2043 18.8278C77.2522 19.2616 76.1876 19.4785 75.0104 19.4785C73.5909 19.4785 72.3272 19.1749 71.2194 18.5676C70.1115 17.9603 69.2459 17.0927 68.6227 15.9648C67.9995 14.837 67.6879 13.5183 67.6879 12.0087C67.6879 10.4991 67.9909 9.18044 68.5968 8.05259C69.2199 6.92475 70.0855 6.05718 71.1934 5.44988C72.3013 4.84258 73.5736 4.53893 75.0104 4.53893C76.4126 4.53893 77.659 4.8339 78.7496 5.42385C79.8402 6.0138 80.6884 6.85534 81.2943 7.94848C81.9175 9.04163 82.2291 10.317 82.2291 11.7745ZM77.685 10.6033C77.685 9.83979 77.4253 9.23249 76.906 8.78135C76.3866 8.33022 75.7375 8.10465 74.9585 8.10465C74.2141 8.10465 73.5823 8.32154 73.063 8.75533C72.561 9.18911 72.2494 9.80509 72.1282 10.6033H77.685Z" />
    <path
        d="M82.65 12.0087C82.65 10.4991 82.9529 9.18044 83.5588 8.05259C84.182 6.92475 85.0389 6.05718 86.1295 5.44988C87.2374 4.84258 88.5011 4.53893 89.9206 4.53893C91.7382 4.53893 93.2529 5.01609 94.4647 5.97042C95.6937 6.92475 96.4987 8.26949 96.8795 10.0046H92.1537C91.7555 8.89414 90.9852 8.33889 89.8427 8.33889C89.0291 8.33889 88.3799 8.65989 87.8952 9.3019C87.4105 9.92655 87.1681 10.8288 87.1681 12.0087C87.1681 13.1886 87.4105 14.0996 87.8952 14.7416C88.3799 15.3662 89.0291 15.6786 89.8427 15.6786C90.9852 15.6786 91.7555 15.1233 92.1537 14.0128H96.8795C96.4987 15.7133 95.6937 17.0493 94.4647 18.021C93.2356 18.9927 91.7209 19.4785 89.9206 19.4785C88.5011 19.4785 87.2374 19.1749 86.1295 18.5676C85.0389 17.9603 84.182 17.0927 83.5588 15.9648C82.9529 14.837 82.65 13.5183 82.65 12.0087Z" />
    <path
        d="M106.291 15.4964V19.2703H104.032C102.423 19.2703 101.167 18.8799 100.267 18.0991C99.3672 17.3009 98.9171 16.0082 98.9171 14.221V8.443H97.1514V4.74714H98.9171V1.20745H103.357V4.74714H106.266V8.443H103.357V14.2731C103.357 14.7069 103.461 15.0192 103.669 15.2101C103.877 15.4009 104.223 15.4964 104.708 15.4964H106.291Z" />
</svg>