<svg width="32" height="32" viewBox="0 0 32 32" fill="none" xmlns="http://www.w3.org/2000/svg">
<g clip-path="url(#clip0_3312_172698)">
<path d="M15.332 9.99414C13.8594 9.99414 12.6654 11.1881 12.6654 12.6608H11.9987C10.612 12.6608 9.50204 13.7248 9.37337 15.0775C9.71071 15.1928 14.228 16.7028 14.228 16.7021C15.1847 17.0215 16.8127 17.0215 17.7694 16.7021C17.7694 16.7021 21.224 15.5488 22.6447 15.0775C22.5214 13.7195 21.3887 12.6608 19.9987 12.6608H19.332C19.332 11.1881 18.138 9.99414 16.6654 9.99414H15.332ZM15.332 11.3275H16.6654C17.402 11.3275 17.9987 11.9241 17.9987 12.6608H13.9987C13.9987 11.9241 14.5954 11.3275 15.332 11.3275ZM9.33203 16.4735V19.3275C9.33203 20.8001 10.526 21.9941 11.9987 21.9941H19.9987C21.4714 21.9941 22.6654 20.8001 22.6654 19.3275V16.4735L18.186 17.9735C16.956 18.3835 15.0414 18.3835 13.8114 17.9735L9.33203 16.4735Z" fill="#4BAB71"/>
</g>
<defs>
<clipPath id="clip0_3312_172698">
<rect x="4" y="4" width="24" height="24" rx="12" fill="white"/>
</clipPath>
</defs>
</svg>
