<svg width="22" height="22" viewBox="0 0 22 22" fill="#6C7275" xmlns="http://www.w3.org/2000/svg">
    <path
        d="M12 1C12 0.447715 11.5523 0 11 0C10.4477 0 10 0.447715 10 1V3C10 3.55228 10.4477 4 11 4C11.5523 4 12 3.55228 12 3V1Z" />
    <path
        d="M12 19C12 18.4477 11.5523 18 11 18C10.4477 18 10 18.4477 10 19V21C10 21.5523 10.4477 22 11 22C11.5523 22 12 21.5523 12 21V19Z" />
    <path
        d="M0 11C0 10.4477 0.447715 10 1 10H3C3.55228 10 4 10.4477 4 11C4 11.5523 3.55228 12 3 12H1C0.447715 12 0 11.5523 0 11Z" />
    <path
        d="M4.60701 3.1928C4.21649 2.80227 3.58332 2.80227 3.1928 3.1928C2.80227 3.58332 2.80227 4.21649 3.1928 4.60701L4.60701 6.02122C4.99753 6.41175 5.6307 6.41175 6.02122 6.02122C6.41175 5.6307 6.41175 4.99753 6.02122 4.60701L4.60701 3.1928Z" />
    <path
        d="M18.8072 3.1928C19.1978 3.58332 19.1978 4.21649 18.8072 4.60701L17.393 6.02122C17.0025 6.41175 16.3693 6.41175 15.9788 6.02122C15.5883 5.6307 15.5883 4.99753 15.9788 4.60701L17.393 3.1928C17.7835 2.80227 18.4167 2.80227 18.8072 3.1928Z" />
    <path
        d="M6.02122 17.397C6.41175 17.0065 6.41175 16.3734 6.02122 15.9828C5.6307 15.5923 4.99753 15.5923 4.60701 15.9828L3.1928 17.397C2.80227 17.7876 2.80227 18.4207 3.1928 18.8113C3.58332 19.2018 4.21649 19.2018 4.60701 18.8113L6.02122 17.397Z" />
    <path
        d="M15.9788 15.9828C16.3693 15.5923 17.0025 15.5923 17.393 15.9828L18.8072 17.397C19.1978 17.7876 19.1978 18.4207 18.8072 18.8113C18.4167 19.2018 17.7835 19.2018 17.393 18.8113L15.9788 17.397C15.5883 17.0065 15.5883 16.3734 15.9788 15.9828Z" />
    <path
        d="M19 10C18.4477 10 18 10.4477 18 11C18 11.5523 18.4477 12 19 12H21C21.5523 12 22 11.5523 22 11C22 10.4477 21.5523 10 21 10H19Z" />
    <path
        d="M11 5C7.68629 5 5 7.68629 5 11C5 14.3137 7.68629 17 11 17C14.3137 17 17 14.3137 17 11C17 7.68629 14.3137 5 11 5Z" />
</svg>