<svg width="26" height="26" viewBox="0 0 26 26" fill="none" xmlns="http://www.w3.org/2000/svg">
    <path
        d="M20.105 7.37978C19.9097 7.18452 19.9097 6.86795 20.105 6.67269L22.5725 4.20504C24.9229 6.75889 26.0649 10.0248 25.9972 13.2723L20.105 7.37978ZM16.1222 10.6556C15.927 10.8509 15.927 11.1674 16.1222 11.3627L24.2614 19.5023C25.125 18.0079 25.667 16.378 25.8875 14.7149L19.3289 8.15595C19.1336 7.96068 18.817 7.96068 18.6218 8.15595L16.1222 10.6556ZM0.00284613 12.729C-0.0649083 15.9752 1.07706 19.2411 3.42753 21.7962L5.89504 19.3285C6.09029 19.1333 6.09029 18.8167 5.89504 18.6214L0.00284613 12.729ZM4.20485 22.5723C6.75858 24.9229 10.0256 26.0649 13.2716 25.9972L7.37946 20.1047C7.1842 19.9094 6.8676 19.9094 6.67234 20.1047L4.20485 22.5723ZM13.0519 18.5174C13.2472 18.3222 13.2472 18.0056 13.0519 17.8103L1.73982 6.49772C0.87626 7.99209 0.334223 9.62072 0.113713 11.2851L9.84523 21.0171C10.0405 21.2124 10.3571 21.2124 10.5524 21.0171L13.0519 18.5174ZM9.60276 7.08454C9.78969 6.88798 9.7858 6.57823 9.594 6.38642L5.55009 2.34233C4.93783 2.77105 4.35391 3.25889 3.80695 3.80588C3.25998 4.35287 2.77216 4.93684 2.34346 5.54912L6.3864 9.59111C6.57859 9.78325 6.88907 9.7867 7.08548 9.59887L8.47817 8.26702L9.60276 7.08454ZM11.2072 21.6733C11.012 21.8685 11.012 22.1851 11.2072 22.3804L14.7142 25.8875C16.3785 25.667 18.0071 25.1249 19.5013 24.2613L14.4139 19.1736C14.2186 18.9783 13.902 18.9783 13.7067 19.1736L11.2072 21.6733ZM23.6565 20.4496L11.0843 7.87683C10.8891 7.68156 10.5725 7.68156 10.3772 7.87683L7.87766 10.3765C7.68241 10.5718 7.68241 10.8883 7.87766 11.0836L20.4499 23.6564C21.0622 23.2277 21.6461 22.7398 22.193 22.1929C22.74 21.6459 23.2278 21.0619 23.6565 20.4496ZM17.8445 7.37855C18.0397 7.18329 18.0397 6.86672 17.8445 6.67146L11.2858 0.112477C9.62151 0.332998 7.99294 0.875053 6.49865 1.73866L14.6378 9.87821C14.8331 10.0735 15.1497 10.0735 15.3449 9.87821L17.8445 7.37855ZM21.7951 3.42769C19.2414 1.07712 15.9744 -0.0649114 12.7284 0.00284625L18.6205 5.89529C18.8158 6.09056 19.1324 6.09056 19.3277 5.89529L21.7951 3.42769Z"
        fill="url(#paint0_linear_526_12008)" />
    <defs>
        <linearGradient id="paint0_linear_526_12008" x1="13" y1="0" x2="13" y2="26" gradientUnits="userSpaceOnUse">
            <stop stop-color="currentColor" />
            <stop offset="1" stop-color="currentColor" />
        </linearGradient>
    </defs>
</svg>