<svg width="16" height="16" viewBox="0 0 16 16" fill="none" xmlns="http://www.w3.org/2000/svg">
<path d="M15.6867 8.03333C15.4933 7.83999 15.1733 7.83999 14.98 8.03333L14.6733 8.34001V8C14.6733 4.32 11.68 1.32666 7.99999 1.32666C5.96666 1.32666 4.06666 2.23999 2.79333 3.82666C2.61999 4.03999 2.65332 4.35999 2.87332 4.52665C3.08666 4.69999 3.40666 4.66666 3.57332 4.44666C4.65999 3.09332 6.27332 2.31999 7.99999 2.31999C11.1267 2.31999 13.6733 4.86666 13.6733 7.99333V8.32666L13.3667 8.02002C13.1733 7.82669 12.8533 7.82669 12.66 8.02002C12.4667 8.21335 12.4667 8.53335 12.66 8.72668L13.82 9.88668C13.8667 9.93334 13.92 9.96666 13.98 9.99333C14.04 10.02 14.1067 10.0333 14.1733 10.0333C14.24 10.0333 14.3 10.02 14.3667 9.99333C14.4267 9.96666 14.48 9.93334 14.5267 9.88668L15.6867 8.72668C15.88 8.54668 15.88 8.22666 15.6867 8.03333Z" fill="#6C7275"/>
<path d="M13.1267 11.4666C12.9133 11.2933 12.5933 11.3266 12.4267 11.5466C11.34 12.9 9.72665 13.6733 7.99998 13.6733C4.87332 13.6733 2.32665 11.1266 2.32665 7.99996V7.66663L2.63332 7.97331C2.73332 8.07331 2.85999 8.11996 2.98665 8.11996C3.11332 8.11996 3.23999 8.07331 3.33999 7.97331C3.53332 7.77998 3.53332 7.45998 3.33999 7.26664L2.17998 6.10661C2.13332 6.05994 2.07998 6.02663 2.01998 5.99996C1.89998 5.94663 1.75998 5.94663 1.63998 5.99996C1.57998 6.02663 1.52665 6.05994 1.47999 6.10661L0.319988 7.26664C0.126654 7.45998 0.126654 7.77998 0.319988 7.97331C0.513321 8.16664 0.833319 8.16664 1.02665 7.97331L1.33332 7.66663V7.99996C1.33332 11.68 4.32665 14.6733 8.00665 14.6733C10.04 14.6733 11.94 13.76 13.2133 12.1733C13.38 11.96 13.3467 11.64 13.1267 11.4666Z" fill="#6C7275"/>
</svg>
