<svg xmlns="http://www.w3.org/2000/svg">
  <defs>
    <symbol id="plus" viewBox="0 0 15 15" fill="currentcolor">
      <path
        d="M7.69559 0.850788C8.17872 0.840217 8.57895 1.22331 8.58952 1.70644L8.70436 6.95519L13.9531 6.84035C14.4362 6.82978 14.8365 7.21286 14.847 7.696C14.8576 8.17913 14.4745 8.57936 13.9914 8.58993L8.74264 8.70477L8.85748 13.9535C8.86805 14.4366 8.48496 14.8369 8.00183 14.8474C7.51869 14.858 7.11847 14.4749 7.1079 13.9918L6.99306 8.74305L1.74431 8.85789C1.26118 8.86846 0.860955 8.48537 0.850384 8.00223C0.839813 7.5191 1.2229 7.11887 1.70603 7.1083L6.95478 6.99347L6.83994 1.74472C6.82937 1.26158 7.21246 0.861359 7.69559 0.850788Z" />
    </symbol>
    <symbol id="check-fill" viewBox="0 0 24 24" fill="currentcolor">
      <path
        d="M10.1575 16.8849C10.5032 16.8849 10.8257 16.7467 11.0562 16.5162L18.3142 9.25817L16.517 7.46094L10.1575 13.8204L7.48473 11.1476L5.6875 12.9448L9.25893 16.5162C9.48934 16.7467 9.81192 16.8849 10.1575 16.8849Z" />
    </symbol>
    <symbol id="xmark" viewBox="0 0 24 24" fill="currentcolor">
      <path fill-rule="evenodd" clip-rule="evenodd"
        d="M16.9993 8.51506L15.4844 7L11.9994 10.4852L8.51497 7.00057L7 8.51562L10.4844 12.0003L7.00056 15.4843L8.51552 16.9994L11.9994 13.5153L15.4838 17L16.9988 15.4849L13.5144 12.0003L16.9993 8.51506Z"
      />
    </symbol>
    <symbol id="check" viewBox="0 0 24 25" fill="currentcolor">
      <path
        d="M10.1575 17.0119C10.5032 17.0119 10.8257 16.8736 11.0562 16.6432L18.3142 9.38513L16.517 7.58789L10.1575 13.9473L7.48473 11.2745L5.6875 13.0718L9.25893 16.6432C9.48934 16.8736 9.81192 17.0119 10.1575 17.0119Z" />
    </symbol>
  </defs>
</svg>