<svg width="120" height="23" viewBox="0 0 120 23" fill="none" xmlns="http://www.w3.org/2000/svg">
<path fill-rule="evenodd" clip-rule="evenodd" d="M13.7696 0L4.70141 7.50888C3.37127 8.6103 3.27453 10.6163 4.49252 11.8406L7.6297 14.9941C8.55015 15.9193 8.74931 17.3411 8.1185 18.4836L6.16688 22.0183H2.93578C1.31439 22.0183 0 20.704 0 19.0826V2.93578C0 1.31439 1.31439 0 2.93578 0H13.7696ZM15.4729 0L13.7791 3.08562C13.1546 4.22328 13.3511 5.636 14.2625 6.55995L17.5906 9.93397C18.8059 11.1661 18.6971 13.1768 17.356 14.2706L7.85672 22.0183H19.0826C20.704 22.0183 22.0183 20.704 22.0183 19.0826V2.93578C22.0183 1.31439 20.704 0 19.0826 0H15.4729Z" fill="#9EA0A1"/>
<path d="M33.2661 21.8409V19.382H34.6604C36.8564 19.382 38.2274 18.1998 38.2274 16.3792C38.2274 14.5586 36.868 13.3764 34.6837 13.3764H30.8262V21.8409H33.2661ZM33.2661 15.1734H34.4048C35.2297 15.1734 35.7758 15.6463 35.7758 16.3792C35.7758 17.1122 35.2297 17.5851 34.4048 17.5851H33.2661V15.1734Z" fill="#9EA0A1"/>
<path d="M43.2334 22.0183C46.0103 22.0183 47.8926 20.3041 47.8926 17.6087C47.8926 14.9133 46.0103 13.2109 43.2334 13.2109C40.4448 13.2109 38.5626 14.9133 38.5626 17.6087C38.5626 20.3041 40.4448 22.0183 43.2334 22.0183ZM43.2334 19.9731C41.9204 19.9731 41.0142 19.0391 41.0142 17.6087C41.0142 16.1901 41.9204 15.2443 43.2334 15.2443C44.5463 15.2443 45.441 16.1901 45.441 17.6087C45.441 19.0391 44.5463 19.9731 43.2334 19.9731Z" fill="#9EA0A1"/>
<path d="M53.4943 21.8409L54.6562 16.7102H54.7724L55.9343 21.8409H59.3503L61.5927 13.3764H59.1411L57.5958 19.583H57.4796L55.9343 13.3764H53.4943L51.9606 19.583H51.8444L50.2875 13.3764H47.8359L50.0784 21.8409H53.4943Z" fill="#9EA0A1"/>
<path d="M68.7579 21.8409V19.8785H64.6099V18.3771H67.6947V16.7575H64.6099V15.3389H68.6417V13.3764H62.2396V21.8409H68.7579Z" fill="#9EA0A1"/>
<path d="M71.9817 21.8409V19.051H72.5742L74.6424 21.8409H77.3728L74.9212 18.8618L75.0142 18.8382C76.2226 18.6136 77.1056 17.6442 77.1056 16.261C77.1056 14.535 75.7578 13.3764 73.7245 13.3764H69.5301V21.8409H71.9817ZM71.9817 15.1734H73.2946C74.0731 15.1734 74.654 15.599 74.654 16.2965C74.654 17.0058 74.0731 17.4314 73.2946 17.4314H71.9817V15.1734Z" fill="#9EA0A1"/>
<path d="M80.3727 21.8409V18.4481H83.2193V21.8409H85.6709V13.3764H83.2193V16.4974H80.3727V13.3764H77.9211V21.8409H80.3727Z" fill="#9EA0A1"/>
<path d="M91.1115 22.0183C93.8884 22.0183 95.7707 20.3041 95.7707 17.6087C95.7707 14.9133 93.8884 13.2109 91.1115 13.2109C88.323 13.2109 86.4407 14.9133 86.4407 17.6087C86.4407 20.3041 88.323 22.0183 91.1115 22.0183ZM91.1115 19.9731C89.7986 19.9731 88.8923 19.0391 88.8923 17.6087C88.8923 16.1901 89.7986 15.2443 91.1115 15.2443C92.4244 15.2443 93.3191 16.1901 93.3191 17.6087C93.3191 19.0391 92.4244 19.9731 91.1115 19.9731Z" fill="#9EA0A1"/>
<path d="M100.399 22.0183C102.722 22.0183 104.303 20.5996 104.303 18.3653V13.3764H101.851V18.2825C101.851 19.2992 101.27 19.9731 100.399 19.9731C99.5155 19.9731 98.9462 19.3111 98.9462 18.2825V13.3764L96.4946 14.8443V18.3653C96.4946 20.5996 98.0748 22.0183 100.399 22.0183Z" fill="#9EA0A1"/>
<path d="M108.838 22.0183C111.162 22.0183 112.684 20.9307 112.684 19.2519C112.684 17.2068 110.767 16.8994 109.349 16.6866C108.385 16.5447 107.56 16.4383 107.56 15.7999C107.56 15.3271 108.025 14.996 108.803 14.996C109.64 14.996 110.186 15.4216 110.186 16.1664H112.405C112.405 14.4168 110.93 13.2109 108.722 13.2109C106.526 13.2109 105.108 14.2986 105.108 15.9773C105.108 18.1525 107.27 18.3298 108.699 18.5308C109.547 18.649 110.232 18.7909 110.232 19.4056C110.232 19.9258 109.721 20.2213 108.931 20.2213C107.932 20.2213 107.363 19.7603 107.351 19.051H105.05C105.05 20.8006 106.561 22.0183 108.838 22.0183Z" fill="#9EA0A1"/>
<path d="M120 21.8409V19.8785H115.853V18.3771H118.937V16.7575H115.853V15.3389H119.884V13.3764H113.482V21.8409H120Z" fill="#9EA0A1"/>
<path d="M30.8262 8.66351V0H34.0569C34.6829 0 35.2012 0.101526 35.6119 0.304577C36.0226 0.504808 36.3298 0.776952 36.5337 1.12101C36.7376 1.46225 36.8396 1.8472 36.8396 2.27586C36.8396 2.63684 36.7721 2.94142 36.6371 3.18959C36.5021 3.43495 36.3212 3.63236 36.0943 3.78183C35.8704 3.92847 35.6234 4.03564 35.3534 4.10332V4.18793C35.6464 4.20203 35.9321 4.29509 36.2107 4.46712C36.4921 4.63633 36.7247 4.87746 36.9085 5.19049C37.0923 5.50353 37.1842 5.88425 37.1842 6.33265C37.1842 6.77542 37.0779 7.17306 36.8654 7.52558C36.6558 7.87528 36.3313 8.15306 35.8919 8.35893C35.4525 8.56199 34.8911 8.66351 34.2076 8.66351H30.8262ZM32.1572 7.5425H34.0784C34.7159 7.5425 35.1725 7.42123 35.4482 7.1787C35.7239 6.93617 35.8617 6.633 35.8617 6.2692C35.8617 5.99565 35.7914 5.74465 35.6507 5.51622C35.51 5.28779 35.3089 5.10589 35.0476 4.97052C34.7891 4.83515 34.4819 4.76747 34.1258 4.76747H32.1572V7.5425ZM32.1572 3.74798H33.9406C34.2392 3.74798 34.5077 3.69158 34.7461 3.57877C34.9873 3.46597 35.1783 3.30804 35.319 3.10499C35.4626 2.89912 35.5344 2.65658 35.5344 2.37739C35.5344 2.01923 35.4066 1.71888 35.151 1.47635C34.8954 1.23382 34.5034 1.11255 33.975 1.11255H32.1572V3.74798Z" fill="#9EA0A1"/>
<path d="M44.436 0H45.7713V5.69812C45.7713 6.30445 45.6263 6.84169 45.3363 7.30984C45.0462 7.77516 44.6384 8.14178 44.1129 8.4097C43.5874 8.67479 42.9714 8.80734 42.265 8.80734C41.5614 8.80734 40.9468 8.67479 40.4213 8.4097C39.8958 8.14178 39.488 7.77516 39.198 7.30984C38.9079 6.84169 38.7629 6.30445 38.7629 5.69812V0H40.0939V5.59236C40.0939 5.98437 40.1815 6.33265 40.3567 6.63723C40.5348 6.94181 40.786 7.18152 41.1105 7.35637C41.435 7.5284 41.8198 7.61441 42.265 7.61441C42.713 7.61441 43.0992 7.5284 43.4237 7.35637C43.7511 7.18152 44.0009 6.94181 44.1732 6.63723C44.3484 6.33265 44.436 5.98437 44.436 5.59236V0Z" fill="#9EA0A1"/>
<path d="M49.0376 0V8.66351H47.7065V0H49.0376Z" fill="#9EA0A1"/>
<path d="M50.976 8.66351V0H52.307V7.53827H56.3045V8.66351H50.976Z" fill="#9EA0A1"/>
<path d="M60.6788 8.66351H57.8229V0H60.7693C61.6337 0 62.376 0.17344 62.9963 0.520319C63.6166 0.864377 64.0919 1.35931 64.4221 2.00513C64.7552 2.64812 64.9218 3.41944 64.9218 4.31907C64.9218 5.22151 64.7538 5.99706 64.4178 6.64569C64.0847 7.29433 63.6022 7.79349 62.9704 8.14319C62.3387 8.49007 61.5748 8.66351 60.6788 8.66351ZM59.1539 7.52135H60.6056C61.2776 7.52135 61.8361 7.39726 62.2812 7.14909C62.7263 6.8981 63.0595 6.53571 63.2806 6.06192C63.5017 5.58531 63.6123 5.00436 63.6123 4.31907C63.6123 3.63941 63.5017 3.06269 63.2806 2.5889C63.0623 2.11511 62.7364 1.75555 62.3028 1.51019C61.8691 1.26484 61.3307 1.14216 60.6874 1.14216H59.1539V7.52135Z" fill="#9EA0A1"/>
<path d="M69.7872 8.66351V0H73.0179C73.6439 0 74.1623 0.101526 74.5729 0.304577C74.9836 0.504808 75.2909 0.776952 75.4947 1.12101C75.6986 1.46225 75.8006 1.8472 75.8006 2.27586C75.8006 2.63684 75.7331 2.94142 75.5981 3.18959C75.4632 3.43495 75.2822 3.63236 75.0554 3.78183C74.8314 3.92847 74.5844 4.03564 74.3145 4.10332V4.18793C74.6074 4.20203 74.8931 4.29509 75.1717 4.46712C75.4531 4.63633 75.6857 4.87746 75.8695 5.19049C76.0533 5.50353 76.1452 5.88425 76.1452 6.33265C76.1452 6.77542 76.0389 7.17306 75.8264 7.52558C75.6168 7.87528 75.2923 8.15306 74.8529 8.35893C74.4135 8.56199 73.8521 8.66351 73.1686 8.66351H69.7872ZM71.1182 7.5425H73.0394C73.6769 7.5425 74.1335 7.42123 74.4092 7.1787C74.6849 6.93617 74.8228 6.633 74.8228 6.2692C74.8228 5.99565 74.7524 5.74465 74.6117 5.51622C74.471 5.28779 74.27 5.10589 74.0086 4.97052C73.7502 4.83515 73.4429 4.76747 73.0868 4.76747H71.1182V7.5425ZM71.1182 3.74798H72.9016C73.2002 3.74798 73.4687 3.69158 73.7071 3.57877C73.9483 3.46597 74.1393 3.30804 74.28 3.10499C74.4236 2.89912 74.4954 2.65658 74.4954 2.37739C74.4954 2.01923 74.3676 1.71888 74.112 1.47635C73.8564 1.23382 73.4644 1.11255 72.936 1.11255H71.1182V3.74798Z" fill="#9EA0A1"/>
<path d="M77.0433 0H78.5553L80.8598 3.93834H80.9546L83.2592 0H84.7711L81.5706 5.26241V8.66351H80.2439V5.26241L77.0433 0Z" fill="#9EA0A1"/>
</svg>
