<svg width="120" height="23" viewBox="0 0 120 23" fill="none" xmlns="http://www.w3.org/2000/svg">
<path fill-rule="evenodd" clip-rule="evenodd" d="M13.7696 0L4.70141 7.50888C3.37127 8.6103 3.27453 10.6163 4.49252 11.8406L7.6297 14.9941C8.55015 15.9193 8.74931 17.3411 8.1185 18.4836L6.16688 22.0183H2.93578C1.31439 22.0183 0 20.704 0 19.0826V2.93578C0 1.31439 1.31439 0 2.93578 0H13.7696ZM15.4729 0L13.7791 3.08562C13.1546 4.22328 13.3511 5.636 14.2625 6.55995L17.5906 9.93397C18.8059 11.1661 18.6971 13.1768 17.356 14.2706L7.85672 22.0183H19.0826C20.704 22.0183 22.0183 20.704 22.0183 19.0826V2.93578C22.0183 1.31439 20.704 0 19.0826 0H15.4729Z" fill="#9EA0A1"/>
<path d="M33.2661 21.8409V19.382H34.6604C36.8564 19.382 38.2274 18.1998 38.2274 16.3792C38.2274 14.5586 36.868 13.3764 34.6837 13.3764H30.8262V21.8409H33.2661ZM33.2661 15.1734H34.4048C35.2297 15.1734 35.7758 15.6463 35.7758 16.3792C35.7758 17.1122 35.2297 17.5851 34.4048 17.5851H33.2661V15.1734Z" fill="#9EA0A1"/>
<path d="M43.2334 22.0183C46.0103 22.0183 47.8926 20.3041 47.8926 17.6087C47.8926 14.9133 46.0103 13.2109 43.2334 13.2109C40.4448 13.2109 38.5626 14.9133 38.5626 17.6087C38.5626 20.3041 40.4448 22.0183 43.2334 22.0183ZM43.2334 19.9731C41.9204 19.9731 41.0142 19.0391 41.0142 17.6087C41.0142 16.1901 41.9204 15.2443 43.2334 15.2443C44.5463 15.2443 45.441 16.1901 45.441 17.6087C45.441 19.0391 44.5463 19.9731 43.2334 19.9731Z" fill="#9EA0A1"/>
<path d="M53.4943 21.8409L54.6562 16.7102H54.7724L55.9343 21.8409H59.3503L61.5927 13.3764H59.1411L57.5958 19.583H57.4796L55.9343 13.3764H53.4943L51.9606 19.583H51.8444L50.2875 13.3764H47.8359L50.0784 21.8409H53.4943Z" fill="#9EA0A1"/>
<path d="M68.7579 21.8409V19.8785H64.6099V18.3771H67.6947V16.7575H64.6099V15.3389H68.6417V13.3764H62.2396V21.8409H68.7579Z" fill="#9EA0A1"/>
<path d="M71.9817 21.8409V19.051H72.5742L74.6424 21.8409H77.3728L74.9212 18.8618L75.0142 18.8382C76.2226 18.6136 77.1056 17.6442 77.1056 16.261C77.1056 14.535 75.7578 13.3764 73.7245 13.3764H69.5301V21.8409H71.9817ZM71.9817 15.1734H73.2946C74.0731 15.1734 74.654 15.599 74.654 16.2965C74.654 17.0058 74.0731 17.4314 73.2946 17.4314H71.9817V15.1734Z" fill="#9EA0A1"/>
<path d="M80.3727 21.8409V18.4481H83.2193V21.8409H85.6709V13.3764H83.2193V16.4974H80.3727V13.3764H77.9211V21.8409H80.3727Z" fill="#9EA0A1"/>
<path d="M91.1115 22.0183C93.8884 22.0183 95.7707 20.3041 95.7707 17.6087C95.7707 14.9133 93.8884 13.2109 91.1115 13.2109C88.323 13.2109 86.4407 14.9133 86.4407 17.6087C86.4407 20.3041 88.323 22.0183 91.1115 22.0183ZM91.1115 19.9731C89.7986 19.9731 88.8923 19.0391 88.8923 17.6087C88.8923 16.1901 89.7986 15.2443 91.1115 15.2443C92.4244 15.2443 93.3191 16.1901 93.3191 17.6087C93.3191 19.0391 92.4244 19.9731 91.1115 19.9731Z" fill="#9EA0A1"/>
<path d="M100.399 22.0183C102.722 22.0183 104.303 20.5996 104.303 18.3653V13.3764H101.851V18.2825C101.851 19.2992 101.27 19.9731 100.399 19.9731C99.5155 19.9731 98.9462 19.3111 98.9462 18.2825V13.3764L96.4946 14.8443V18.3653C96.4946 20.5996 98.0748 22.0183 100.399 22.0183Z" fill="#9EA0A1"/>
<path d="M108.838 22.0183C111.162 22.0183 112.684 20.9307 112.684 19.2519C112.684 17.2068 110.767 16.8994 109.349 16.6866C108.385 16.5447 107.56 16.4383 107.56 15.7999C107.56 15.3271 108.025 14.996 108.803 14.996C109.64 14.996 110.186 15.4216 110.186 16.1664H112.405C112.405 14.4168 110.93 13.2109 108.722 13.2109C106.526 13.2109 105.108 14.2986 105.108 15.9773C105.108 18.1525 107.27 18.3298 108.699 18.5308C109.547 18.649 110.232 18.7909 110.232 19.4056C110.232 19.9258 109.721 20.2213 108.931 20.2213C107.932 20.2213 107.363 19.7603 107.351 19.051H105.05C105.05 20.8006 106.561 22.0183 108.838 22.0183Z" fill="#9EA0A1"/>
<path d="M120 21.8409V19.8785H115.853V18.3771H118.937V16.7575H115.853V15.3389H119.884V13.3764H113.482V21.8409H120Z" fill="#9EA0A1"/>
<path d="M31.0568 9V0.272727H34.108C34.7159 0.272727 35.2173 0.377841 35.6122 0.588068C36.0071 0.795454 36.3011 1.07528 36.4943 1.42756C36.6875 1.77699 36.7841 2.16477 36.7841 2.59091C36.7841 2.96591 36.7173 3.27557 36.5838 3.51989C36.4531 3.7642 36.2798 3.95739 36.0639 4.09943C35.8509 4.24148 35.6193 4.34659 35.3693 4.41477V4.5C35.6364 4.51705 35.9048 4.6108 36.1747 4.78125C36.4446 4.9517 36.6705 5.19602 36.8523 5.5142C37.0341 5.83239 37.125 6.22159 37.125 6.68182C37.125 7.11932 37.0256 7.51278 36.8267 7.86222C36.6278 8.21165 36.3139 8.48864 35.8849 8.69318C35.456 8.89773 34.8977 9 34.2102 9H31.0568ZM32.1136 8.0625H34.2102C34.9006 8.0625 35.3906 7.92898 35.6804 7.66193C35.973 7.39205 36.1193 7.06534 36.1193 6.68182C36.1193 6.38636 36.044 6.11364 35.8935 5.86364C35.7429 5.6108 35.5284 5.40909 35.25 5.25852C34.9716 5.10511 34.642 5.02841 34.2614 5.02841H32.1136V8.0625ZM32.1136 4.10795H34.0739C34.392 4.10795 34.679 4.04545 34.9347 3.92045C35.1932 3.79545 35.3977 3.61932 35.5483 3.39205C35.7017 3.16477 35.7784 2.89773 35.7784 2.59091C35.7784 2.20739 35.6449 1.8821 35.3778 1.61506C35.1108 1.34517 34.6875 1.21023 34.108 1.21023H32.1136V4.10795ZM44.5888 0.272727H45.6456V6.05114C45.6456 6.64773 45.505 7.1804 45.2237 7.64915C44.9453 8.11506 44.5518 8.48295 44.0433 8.75284C43.5348 9.01989 42.9382 9.15341 42.2536 9.15341C41.5689 9.15341 40.9723 9.01989 40.4638 8.75284C39.9553 8.48295 39.5604 8.11506 39.2791 7.64915C39.0007 7.1804 38.8615 6.64773 38.8615 6.05114V0.272727H39.9183V5.96591C39.9183 6.39205 40.0121 6.77131 40.1996 7.10369C40.3871 7.43324 40.6541 7.69318 41.0007 7.88352C41.3501 8.07102 41.7678 8.16477 42.2536 8.16477C42.7393 8.16477 43.157 8.07102 43.5064 7.88352C43.8558 7.69318 44.1229 7.43324 44.3075 7.10369C44.495 6.77131 44.5888 6.39205 44.5888 5.96591V0.272727ZM48.8129 0.272727V9H47.756V0.272727H48.8129ZM50.9318 9V0.272727H51.9886V8.0625H56.0455V9H50.9318ZM56.0444 1.21023V0.272727H62.5898V1.21023H59.8455V9H58.7887V1.21023H56.0444ZM67.5959 9V0.272727H70.647C71.255 0.272727 71.7564 0.377841 72.1513 0.588068C72.5462 0.795454 72.8402 1.07528 73.0334 1.42756C73.2266 1.77699 73.3232 2.16477 73.3232 2.59091C73.3232 2.96591 73.2564 3.27557 73.1229 3.51989C72.9922 3.7642 72.8189 3.95739 72.603 4.09943C72.3899 4.24148 72.1584 4.34659 71.9084 4.41477V4.5C72.1754 4.51705 72.4439 4.6108 72.7138 4.78125C72.9837 4.9517 73.2095 5.19602 73.3913 5.5142C73.5732 5.83239 73.6641 6.22159 73.6641 6.68182C73.6641 7.11932 73.5646 7.51278 73.3658 7.86222C73.1669 8.21165 72.853 8.48864 72.424 8.69318C71.995 8.89773 71.4368 9 70.7493 9H67.5959ZM68.6527 8.0625H70.7493C71.4396 8.0625 71.9297 7.92898 72.2195 7.66193C72.5121 7.39205 72.6584 7.06534 72.6584 6.68182C72.6584 6.38636 72.5831 6.11364 72.4325 5.86364C72.282 5.6108 72.0675 5.40909 71.7891 5.25852C71.5107 5.10511 71.1811 5.02841 70.8004 5.02841H68.6527V8.0625ZM68.6527 4.10795H70.6129C70.9311 4.10795 71.218 4.04545 71.4737 3.92045C71.7322 3.79545 71.9368 3.61932 72.0874 3.39205C72.2408 3.16477 72.3175 2.89773 72.3175 2.59091C72.3175 2.20739 72.1839 1.8821 71.9169 1.61506C71.6499 1.34517 71.2266 1.21023 70.647 1.21023H68.6527V4.10795ZM74.6506 0.272727H75.8608L78.2812 4.34659H78.3835L80.804 0.272727H82.0142L78.8608 5.40341V9H77.804V5.40341L74.6506 0.272727Z" fill="#9EA0A1"/>
</svg>
